<svg width="316" height="316" viewBox="0 0 316 316" fill="none" xmlns="http://www.w3.org/2000/svg">
<path d="M208.56 176.691H208.465H208.56ZM76.6306 222.78C77.231 222.875 80.5174 223.033 80.5174 222.464C80.5174 222.132 79.917 222.148 79.917 222.148C79.996 219.62 83.2034 218.988 85.4944 220.315C86.1258 220.679 86.7095 221.118 87.2324 221.627C83.9934 221.8 79.6958 224.012 79.9802 227.22C80.1433 228.056 80.4941 228.845 81.0057 229.527C81.5177 230.207 82.1769 230.764 82.9348 231.154C83.8819 231.862 84.9606 232.376 86.108 232.663C87.2554 232.951 88.4487 233.006 89.6182 232.829C91.7009 232.298 93.5334 231.058 94.8006 229.321C97.6644 229.412 100.466 228.476 102.701 226.683C102.795 226.607 102.873 226.514 102.93 226.409C102.987 226.302 103.022 226.186 103.032 226.066C103.032 225.513 103.032 225.545 99.8724 222.037C99.7827 221.937 99.6707 221.861 99.5455 221.814C99.4199 221.766 99.2852 221.749 99.1519 221.765C99.0189 221.779 98.8913 221.827 98.7802 221.902C98.6693 221.977 98.5776 222.078 98.5136 222.195C98.459 222.264 98.4113 222.339 98.3714 222.417C98.1203 222.888 97.7147 223.258 97.2226 223.466C96.7305 223.673 96.1821 223.704 95.6696 223.554C94.0896 223.096 92.0514 218.909 88.3384 216.413C85.0994 214.232 80.7544 213.584 77.6892 216.176C76.3697 217.308 75.4318 218.819 75.0032 220.505C74.8325 221.025 74.8664 221.59 75.098 222.085C75.5131 222.486 76.0546 222.733 76.6306 222.78ZM82.5714 228.642C82.1382 228.332 81.8374 227.871 81.7291 227.35C81.6208 226.829 81.7127 226.286 81.9868 225.829C82.6874 224.86 83.661 224.124 84.7834 223.712C83.8779 225.247 83.1364 226.872 82.5714 228.563V228.642ZM97.455 226.145C97.8342 225.008 97.455 225.403 98.087 225.118C98.5656 224.88 98.9988 224.559 99.3668 224.17L100.805 225.877C99.6138 226.631 98.2973 227.167 96.9178 227.457C97.0758 227.046 97.3286 226.414 97.455 226.066V226.145ZM91.7354 222.116C93.2364 223.997 94.4846 225.671 96.7756 225.482C96.4487 226.162 96.1841 226.871 95.9856 227.599C94.8322 227.678 94.6742 227.409 94.216 227.599C93.3154 227.947 91.8302 231.186 88.2278 231.17C88.4519 230.668 88.5958 230.135 88.6544 229.59C89.6736 229.384 90.6279 228.934 91.4352 228.278C91.7811 227.978 92.0057 227.563 92.0672 227.109C92.0672 226.556 91.8776 225.845 90.7084 224.913C91.1439 223.99 91.4878 223.027 91.7354 222.037V222.116ZM86.4266 228.089C85.0362 227.346 87.4062 226.035 88.9388 226.082C89.2907 226.085 89.6351 226.187 89.9313 226.377C90.2278 226.567 90.4642 226.838 90.6136 227.157C90.4024 227.496 90.1241 227.79 89.7957 228.018C89.4674 228.247 89.0959 228.406 88.7038 228.485C88.3119 228.565 87.9078 228.564 87.5162 228.482C87.1244 228.401 86.7538 228.24 86.4266 228.01V228.089ZM88.291 218.419C89.3637 219.332 90.3381 220.353 91.1982 221.469C90.698 222.38 90.316 223.351 90.0606 224.36C89.3964 224.169 88.7003 224.118 88.0155 224.207C87.3306 224.297 86.6713 224.526 86.079 224.881C83.1876 226.461 83.867 229.922 87.8802 229.527C87.6443 229.981 87.4688 230.464 87.3588 230.964C85.7564 230.644 84.2582 229.933 82.998 228.895C84.1178 227.154 84.9899 225.266 85.5892 223.286C86.2034 223.004 86.8678 222.847 87.5435 222.825C88.2192 222.804 88.8922 222.917 89.5234 223.159L89.8552 221.911L89.5076 221.753C88.765 221.247 88.4332 220.852 87.58 220.173C87.8966 219.596 88.1356 218.98 88.291 218.34V218.419ZM82.1606 215.891C84.1379 215.927 86.0523 216.592 87.6274 217.787C87.3444 218.431 87.1324 219.104 86.9954 219.794C86.2381 219.2 85.3444 218.802 84.3956 218.64C83.4467 218.477 82.4723 218.553 81.5602 218.862C81.8934 217.903 82.0954 216.904 82.1606 215.891ZM78.5424 217.124C79.4183 216.442 80.4708 216.025 81.576 215.923C81.0856 216.985 80.7811 218.123 80.6754 219.288C80.2045 219.57 79.8193 219.975 79.5605 220.46C79.3016 220.943 79.179 221.488 79.206 222.037C78.0988 222.098 76.9911 221.932 75.9512 221.548C76.1862 219.792 77.1063 218.202 78.5108 217.124H78.5424ZM54.9372 214.485C52.0932 213.253 45.7732 216.902 44.6198 218.862C44.4529 219.293 44.4529 219.773 44.6198 220.205C45.6152 223.981 54.9056 237.316 56.6278 239.386C56.928 239.765 57.3388 239.244 57.0702 238.801C56.2486 237.442 56.3434 240.176 60.5462 226.572C60.9354 226.419 61.298 226.206 61.6206 225.94C61.7671 225.777 61.8481 225.566 61.8481 225.347C61.8481 225.129 61.7671 224.917 61.6206 224.755C61.4769 224.577 61.3126 224.418 61.1308 224.281L62.1262 220.6L66.0762 222.78C65.2773 224.776 64.6947 226.852 64.3382 228.974C62.745 229.548 61.252 230.369 59.9142 231.407C58.982 232.434 60.4514 234.33 61.3678 235.467C62.2842 236.605 63.0584 237.379 63.2322 237.553C63.406 237.727 63.959 237.553 63.9116 237.269C63.8113 237.039 63.678 236.827 63.5166 236.637C62.6602 235.304 61.9254 233.898 61.3204 232.434C62.5482 231.699 63.8446 231.085 65.1914 230.601C65.6812 230.427 67.198 229.953 67.6088 230.206C69.6358 231.274 71.7501 232.166 73.9288 232.876C74.0167 232.918 74.1178 232.924 74.2094 232.891C74.3014 232.858 74.3766 232.791 74.4186 232.702C74.4605 232.614 74.4657 232.513 74.4329 232.422C74.4005 232.33 74.3327 232.255 74.2448 232.213L71.5114 230.554C72.0931 229.234 72.4663 227.832 72.6174 226.398L79.364 230.048C79.7748 230.285 80.0908 229.637 79.7906 229.463C79.4904 229.29 59.0136 216.27 54.9372 214.485ZM52.5356 216.16C53.0869 215.994 53.6746 215.994 54.2262 216.16C54.5896 216.318 55.4744 216.792 56.6752 217.455C56.2701 218.573 55.9943 219.734 55.8536 220.916C54.795 220.315 54.163 219.857 53.3256 219.999C52.8691 220.102 52.4419 220.307 52.0774 220.6C52.2354 219.367 52.3776 218.419 52.5356 216.16ZM46.2156 219.636C47.8542 218.073 49.8421 216.925 52.0142 216.286C51.1707 220.014 50.5795 223.792 50.2446 227.599C48.6514 225.076 47.3072 222.403 46.2314 219.62L46.2156 219.636ZM53.3888 232.924C52.5198 231.486 51.5718 229.89 50.6712 228.326C51.2084 226.066 51.3822 225.024 51.714 222.891C52.5784 224.39 53.5778 225.807 54.7002 227.125C54.063 229.006 53.6287 230.95 53.4046 232.924H53.3888ZM56.1538 237.474C55.585 236.573 54.8582 235.357 53.9102 233.793C54.51 231.81 54.907 229.771 55.0952 227.71C55.4428 228.547 58.5396 227.346 59.377 227.03C58.7608 228.974 56.612 235.736 56.1696 237.474H56.1538ZM55.6798 227.22C54.7005 225.525 53.8349 223.767 53.0886 221.958L53.5784 221.69C53.7996 221.816 59.2032 225.008 59.5982 225.261C58.3666 226.044 57.0593 226.7 55.6956 227.22H55.6798ZM60.4198 223.744C59.2348 222.954 57.6232 221.99 56.3908 221.279C56.8122 220.16 57.0886 218.992 57.2124 217.803L61.6996 220.331C61.6206 220.931 61.0834 222.164 60.5146 223.744H60.4198ZM70.8794 230.064L68.4462 228.594C67.3649 228.168 66.1618 228.168 65.0808 228.594C65.6932 226.747 66.1374 224.848 66.408 222.922L72.1276 226.082C71.5433 227.371 71.1543 228.739 70.9742 230.143L70.8794 230.064Z" fill="#2E3032"/>
<path d="M307.074 235.689C304.515 211.862 282.457 175.222 269.279 155.203C276.637 155.792 284.022 155.976 291.398 155.756C293.501 155.756 298.999 155.377 300.059 155.172C300.674 155.045 300.769 154.461 299.838 154.429C298.904 154.398 292.268 154.082 291.369 154.066H275.299C272.834 154.161 268.979 154.382 268.758 154.382C264.018 147.161 260.716 142.642 260.684 142.627C260.649 142.59 260.604 142.561 260.556 142.542C260.508 142.524 260.456 142.516 260.404 142.519C260.352 142.523 260.302 142.536 260.256 142.561C260.21 142.585 260.171 142.617 260.139 142.658C260.108 142.699 260.085 142.746 260.072 142.796C260.06 142.848 260.059 142.899 260.069 142.951C260.079 143.001 260.1 143.049 260.129 143.091C260.159 143.134 260.197 143.169 260.242 143.195C260.969 143.78 292.9 190.437 302.665 222.575C306.537 235.325 308.827 251.331 296.345 255.755C266.704 266.341 34.5546 269.785 12.6086 257.335C9.55917 255.612 8.84817 252.026 9.44857 247.191C10.3808 240.476 13.9989 231.391 18.3597 221.216C23.2735 225.956 64.0374 263.386 70.6418 261.98C77.2462 260.574 114.392 243.32 115.925 240.018C116.815 237.724 117.286 235.288 117.315 232.829C117.502 232.571 117.589 232.255 117.56 231.937C117.531 231.621 117.388 231.325 117.157 231.107C114.708 228.673 66.123 190.153 62.9946 190.264C60.8142 190.358 56.8642 192.602 54.984 193.708C54.3744 192.71 53.4669 191.931 52.3896 191.476C51.3121 191.022 50.1196 190.919 48.98 191.18C47.9059 191.613 46.9438 192.286 46.1667 193.145C45.3894 194.004 44.8171 195.029 44.4928 196.141C44.5106 196.227 44.5574 196.303 44.6249 196.358C44.6925 196.414 44.7772 196.443 44.8642 196.443C44.9516 196.443 45.036 196.414 45.1035 196.358C45.1713 196.303 45.2179 196.227 45.2354 196.141C46.186 194.534 47.6924 193.331 49.4698 192.76C50.2092 192.647 50.9651 192.746 51.6505 193.044C52.3356 193.343 52.922 193.832 53.3408 194.451L35.7712 201.956C34.8384 200.997 33.6738 200.294 32.39 199.917C29.388 199.127 27.3657 201.102 26.1649 203.994C26.1386 204.077 26.1416 204.166 26.1736 204.248C26.2056 204.33 26.2647 204.397 26.3408 204.439C26.4169 204.482 26.5054 204.497 26.5914 204.482C26.6774 204.468 26.7556 204.423 26.8127 204.357C28.835 201.434 31.1734 200.439 33.97 202.777C30.5888 204.278 25.8647 206.411 22.5467 208.054C22.7837 207.675 56.88 145.929 56.88 145.771C58.381 142.99 61.3988 138.013 64.5114 137.365C65.9185 137.058 67.3537 136.899 68.7932 136.891C66.597 140.525 48.7746 170.071 48.743 174.242C48.743 178.982 49.5646 178.24 52.0926 178.982C54.6206 179.725 196.078 178.856 196.331 178.856C198.78 178.856 208.355 178.54 209.239 177.892C211.989 175.87 211.372 172.852 210.172 169.676C209.887 168.918 208.449 165.774 206.522 161.571C214.817 159.074 221.058 162.25 221.627 175.791C222.195 187.499 217.582 191.069 208.75 190.564C201.655 190.153 196.757 188.067 195.209 190.832C193.471 193.913 198.274 200.834 200.36 203.709C200.06 203.709 186.835 203.441 183.501 203.299C178.803 203.117 174.1 203.175 169.408 203.472C166.176 203.544 162.964 203.983 159.833 204.784C158.648 205.368 157.115 208.418 156.467 209.698C155.188 212.21 149.357 227.978 147.746 232.529C146.798 235.151 143.59 243.841 145.739 245.374C145.66 247.065 145.929 249.324 147.414 250.114C148.899 250.904 169.313 251.473 170.877 251.504C173.642 251.583 201.592 251.947 219.43 251.157C237.269 250.367 245.058 248.66 244.6 248.708C245.053 248.575 245.46 248.318 245.776 247.965C246.09 247.614 246.302 247.182 246.385 246.717C246.629 245.549 246.552 244.338 246.164 243.209C248.155 239.338 233.097 207.201 228.926 204.942C228.68 204.804 228.403 204.727 228.12 204.721C227.283 204.721 208.544 203.931 201.26 203.694C199.68 201.466 194.545 193.076 196.52 191.291C199.522 188.668 224.597 201.813 223.254 175.649C222.559 163.814 217.108 156.878 206.048 160.891C205.084 158.806 196.994 141.521 194.83 136.923C203.216 137.425 211.628 137.24 219.983 136.37C220.103 137.845 220.527 139.278 221.229 140.581C221.931 141.883 222.895 143.027 224.06 143.938C230.38 148.678 255.533 147.967 260.1 142.168C261.379 140.419 262.264 138.412 262.692 136.287C263.12 134.162 263.082 131.97 262.58 129.86C263 129.593 263.327 129.201 263.512 128.738C263.765 128.249 263.512 127.632 262.422 127.411C261.016 127.2 259.594 127.116 258.172 127.158C258.172 125.863 258.251 123.445 258.172 120.696C258.314 120.601 259.341 119.369 259.452 119.227C260.711 117.755 261.706 116.077 262.391 114.266C262.912 112.796 263.117 111.106 261.743 110.284C259.626 109.131 258.14 111.248 257.429 113.618C256.766 109.968 255.233 104.612 251.568 105.149C245.342 106.097 249.64 121.186 251.662 127.158C249.886 126.908 248.082 126.908 246.306 127.158C248.281 122.197 249.292 115.782 244.221 114.819C243.452 114.649 242.65 114.708 241.914 114.988C241.179 115.269 240.542 115.759 240.081 116.399C239.98 116.041 239.789 115.715 239.527 115.451C239.266 115.187 238.941 114.994 238.584 114.89C238.227 114.786 237.849 114.774 237.487 114.855C237.125 114.937 236.788 115.109 236.51 115.356C234.188 117.031 235.515 120.87 238.217 122.134C238.074 123.758 238.074 125.392 238.217 127.016C236.535 126.813 234.833 126.85 233.161 127.127C233.067 123.269 232.644 119.426 231.897 115.64C232.856 114.957 233.665 114.082 234.268 113.07C234.872 112.058 235.259 110.932 235.404 109.763C235.625 107.661 234.883 105.907 233.129 105.449C230.933 104.88 229.637 106.413 229.258 108.609C227.315 105.923 223.507 104.959 221.658 108.04C215.733 101.878 212.873 105.323 214.374 108.04C215.496 110.126 218.419 111.295 220.694 111.943C220.694 115.482 222.274 118.468 224.234 121.518C225.545 123.572 227.014 125.547 228.152 127C225.694 126.921 223.233 127.08 220.805 127.474C219.32 127.869 219.083 128.944 220.457 129.718C220.023 131.57 219.864 133.476 219.983 135.374C211.496 134.923 202.987 135.123 194.53 135.975C193.992 134.821 192.397 131.456 192.207 131.061C192.017 130.666 193.534 126.084 195.667 83.4872C205.463 82.6656 249.514 83.6452 253.558 82.081C253.79 81.9977 253.996 81.8543 254.155 81.6656C254.313 81.4769 254.418 81.2493 254.459 81.0066C255.802 76.5984 256.718 38.71 254.459 35.1866C253.906 34.3176 251.931 34.049 250.841 33.891C236.763 31.837 178.019 32.7218 175.001 34.3176C171.983 35.9134 173.263 51.4922 173.832 54.589C143.322 53.6094 72.8696 55.5212 66.2336 58.0018C64.6536 58.5706 64.069 60.7352 63.753 62.3626C61.1302 75.9032 68.493 119.48 70.9578 132.941C70.7998 132.941 70.9578 132.941 69.0302 135.943C67.3988 135.822 65.7584 135.908 64.148 136.196C60.5456 136.749 57.2276 141.726 55.3948 144.823C55.3158 144.981 50.6548 152.723 49.9596 153.987C45.9938 153.371 27.5553 153.608 25.2169 153.734C22.8785 153.86 20.4769 154.034 18.3597 154.192C17.9805 154.192 17.9489 154.919 18.3597 154.935C22.7837 155.203 24.4111 155.298 27.8397 155.346C36.2294 155.472 48.6008 155.82 48.9958 155.772C48.1742 157.21 36.0082 178.856 34.3808 181.921C27.3025 195.193 21.7409 207.343 21.4091 208.37C19.5725 209.205 17.8474 210.268 16.2741 211.53C15.7667 212.922 15.4633 214.381 15.3735 215.86C15.2945 218.403 16.2109 219.02 17.6171 220.442C13.844 228.526 10.742 236.908 8.34257 245.5C7.55926 248.976 7.52692 252.58 8.24777 256.071C8.8929 259.56 10.0988 262.921 11.8186 266.025C12.5911 266.809 13.5922 267.329 14.6783 267.51C18.8337 268.679 31.7106 270.18 36.024 270.67C35.6991 272.6 35.6089 274.563 35.7554 276.516C35.76 278.528 36.0524 280.528 36.6244 282.457C36.6299 282.504 36.6442 282.55 36.6672 282.592C36.6905 282.634 36.7215 282.671 36.7588 282.702C36.7965 282.732 36.8393 282.754 36.8852 282.767C36.9315 282.782 36.9798 282.786 37.0274 282.781C37.0751 282.775 37.1214 282.761 37.1636 282.737C37.2058 282.715 37.2429 282.683 37.2728 282.646C37.3029 282.608 37.3253 282.566 37.3388 282.52C37.3523 282.474 37.3567 282.425 37.3512 282.378C37.604 280.408 37.6729 278.42 37.5566 276.437C37.5463 274.528 37.3291 272.626 36.9088 270.765C39.0892 270.954 41.1906 271.112 43.0234 271.175C42.7321 273.019 42.6525 274.891 42.7864 276.753C42.7919 278.765 43.0846 280.765 43.6554 282.694C43.6554 282.79 43.6939 282.882 43.762 282.95C43.8301 283.019 43.9226 283.057 44.0188 283.057C44.1153 283.057 44.2078 283.019 44.2759 282.95C44.3443 282.882 44.3822 282.79 44.3822 282.694C44.6436 280.725 44.7177 278.736 44.6034 276.753C44.5928 274.908 44.3808 273.069 43.9714 271.27C47.4948 271.349 99.3504 276.01 188.905 274.241C212.905 273.767 241.756 272.661 265.519 270.054C265.206 271.959 265.115 273.894 265.25 275.821C265.258 277.827 265.556 279.823 266.135 281.746C266.125 281.798 266.125 281.854 266.138 281.906C266.15 281.959 266.175 282.008 266.209 282.05C266.243 282.092 266.285 282.126 266.334 282.149C266.383 282.172 266.437 282.184 266.491 282.184C266.545 282.184 266.599 282.172 266.647 282.149C266.696 282.126 266.74 282.092 266.774 282.05C266.807 282.008 266.832 281.959 266.844 281.906C266.857 281.854 266.858 281.798 266.846 281.746C267.123 279.779 267.196 277.788 267.067 275.805C267.05 273.854 266.823 271.909 266.388 270.006C268.142 269.817 272.202 269.311 272.55 269.264C272.239 271.158 272.154 273.083 272.297 274.999C272.299 277.011 272.591 279.012 273.166 280.94C273.177 281.036 273.225 281.124 273.301 281.185C273.377 281.245 273.473 281.274 273.569 281.264C273.665 281.253 273.753 281.205 273.814 281.129C273.876 281.053 273.904 280.957 273.893 280.861C274.154 278.896 274.222 276.912 274.098 274.936C274.088 272.989 273.86 271.049 273.419 269.153C280.545 268.189 302.332 265.25 305.302 259.167C308.81 252.231 308.528 243.209 307.074 235.689ZM163.293 210.251C163.467 209.824 168.76 208.671 174.543 210.251C174.595 210.239 174.651 210.24 174.703 210.253C174.756 210.265 174.805 210.29 174.847 210.323C174.889 210.357 174.923 210.401 174.945 210.449C174.969 210.498 174.981 210.552 174.981 210.606C174.981 210.66 174.969 210.714 174.945 210.763C174.923 210.812 174.889 210.855 174.847 210.888C174.805 210.922 174.756 210.947 174.703 210.959C174.651 210.972 174.595 210.972 174.543 210.962C171.663 211.473 168.723 211.548 165.821 211.183C164.462 210.962 162.74 210.946 163.246 210.251H163.293ZM244.521 247.823C229.906 250.604 149.168 249.972 147.951 249.403C146.735 248.834 146.624 247.001 146.592 245.801C155.346 248.645 240.871 246.448 245.627 243.936C245.88 245.327 245.943 247.554 244.473 247.823H244.521ZM213.853 210.424C213.853 209.887 217.329 209.587 217.487 209.571C219.554 209.412 221.629 209.412 223.696 209.571C224.85 209.698 226.446 209.856 226.319 210.345C226.193 210.835 223.807 211.041 223.396 211.104C221.852 211.246 220.302 211.309 218.751 211.293C217.708 211.262 213.742 211.072 213.806 210.424H213.853ZM234.156 215.686C238.109 223.217 241.428 231.066 244.078 239.149C244.415 240.169 244.602 241.234 244.631 242.309C237.506 244.521 155.377 246.796 147.066 244.41C146.671 244.3 146.561 244.41 146.466 243.747C145.866 239.449 152.897 222.369 154.524 218.388C184.418 217.392 233.84 215.86 234.109 215.686H234.156ZM220.852 111.232C219.125 110.283 217.557 109.067 216.207 107.63C215.591 106.697 215.733 106.05 217.55 106.934C218.688 107.456 220.284 108.388 221.358 109.036C221.082 109.739 220.912 110.479 220.852 111.232ZM258.772 114.06C260.036 111.785 261.285 111.137 261.158 112.48C260.479 114.884 259.514 117.196 258.283 119.369C258.188 117.789 258.077 116.73 257.951 115.688C258.014 115.466 258.33 114.803 258.725 114.06H258.772ZM252.057 127.806C252.373 128.707 252.579 129.244 252.595 129.276C252.612 129.32 252.638 129.361 252.672 129.396C252.705 129.43 252.745 129.458 252.789 129.477C252.833 129.496 252.88 129.507 252.929 129.507C252.976 129.508 253.024 129.499 253.069 129.481C253.764 129.212 252.737 128.565 251.094 119.037C250.604 116.193 249.15 107.424 252.026 107.013C254.364 106.666 255.628 112.464 256.071 114.755C256.891 119.171 257.419 123.637 257.651 128.122C257.649 128.21 257.68 128.295 257.736 128.361C257.793 128.428 257.872 128.472 257.959 128.486C258.044 128.499 258.134 128.481 258.208 128.435C258.281 128.388 258.337 128.316 258.362 128.233C258.367 128.143 258.367 128.054 258.362 127.964C259.79 128.006 261.21 128.202 262.596 128.549C262.42 128.755 262.198 128.917 261.948 129.023C258.63 130.729 248.597 130.397 245.137 130.334C245.611 129.386 245.943 128.659 246.306 127.79C248.194 128.101 250.121 128.106 252.01 127.806H252.057ZM239.733 124.346C240.097 121.186 240.903 116.146 244.094 116.746C247.286 117.347 246.48 121.976 245.785 125.073C245.357 126.849 244.829 128.6 244.205 130.318H239.465C239.427 128.325 239.5 126.331 239.686 124.346H239.733ZM237.727 116.92C237.801 116.85 237.887 116.796 237.984 116.762C238.078 116.728 238.181 116.714 238.281 116.721C238.382 116.729 238.481 116.757 238.571 116.805C238.66 116.853 238.739 116.919 238.801 116.999C239.053 117.251 239.28 117.526 239.481 117.821C239.032 118.828 238.718 119.891 238.548 120.981C237.727 119.843 236.668 117.773 237.727 116.92ZM232.75 107.314C234.804 107.961 233.192 113.365 231.818 115.008C231.438 113.308 230.871 111.654 230.127 110.079C230.585 108.688 231.359 106.871 232.75 107.298V107.314ZM228.863 127.98C229.637 128.96 230.143 129.56 230.143 129.56C230.206 129.622 230.289 129.659 230.377 129.664C230.465 129.669 230.552 129.642 230.621 129.588C230.691 129.534 230.738 129.457 230.755 129.37C230.772 129.283 230.756 129.194 230.712 129.118C230.712 129.118 227.915 125.136 225.608 121.012C223.87 117.852 222.211 114.692 222.669 111.2C223.033 108.451 224.486 107.282 226.935 108.878C230.475 111.153 232.086 125.183 232.592 129.418C232.597 129.529 232.637 129.635 232.704 129.723C232.772 129.81 232.866 129.875 232.971 129.908C233.398 129.908 233.334 129.449 233.319 129.228C233.303 129.007 233.319 127.901 233.319 127.79C234.997 128.003 236.696 128.003 238.375 127.79C238.469 128.944 238.58 129.844 238.659 130.318C233.05 130.318 226.272 130.698 221.627 128.881C224.014 128.408 226.432 128.107 228.863 127.98ZM221.295 130.303C223.606 131.198 226.041 131.731 228.515 131.883C231.312 132.135 250.351 132.167 252.516 132.056C255.78 132.002 259.012 131.399 262.075 130.271C262.368 132.21 262.258 134.191 261.749 136.087C261.241 137.981 260.346 139.751 259.12 141.284C255.281 145.787 230.996 146.814 225.166 142.706C221.326 140.067 220.631 134.79 221.295 130.287V130.303ZM208.56 176.691C208.892 177.75 58.2388 177.797 58.0808 177.782C51.7608 177.782 53.3408 177.782 51.2236 177.26C50.6548 177.134 50.5442 177.134 50.4336 176.581C50.2997 175.713 50.2627 174.834 50.323 173.958C50.3563 174.023 50.4098 174.075 50.4755 174.107C50.541 174.137 50.6152 174.146 50.6864 174.132C50.6864 174.132 208.513 171.983 209.54 171.951C209.966 173.8 210.029 175.522 208.56 176.691ZM253.005 80.8012C253.005 80.8012 253.1 80.6432 253.132 80.6906C253.163 80.738 253.005 80.7854 252.926 80.8012H253.005ZM174.432 40.9536C174.432 39.9266 174.843 36.0398 175.759 35.5658C177.845 34.523 244.126 33.6382 253.179 36.4664C254.759 39.7844 254.254 77.0566 252.926 80.8012C245.153 82.0178 206.032 81.923 195.857 82.9658C196.473 70.5312 196.742 60.0558 196.236 58.0176C196.139 57.7519 195.981 57.5123 195.775 57.3175C195.57 57.1227 195.322 56.9785 195.051 56.8958C191.591 55.3948 178.572 54.9682 174.78 54.8418C174.287 50.2293 174.171 45.5847 174.432 40.9536ZM65.175 80.738C64.938 77.42 63.7688 60.672 66.9288 59.5028C68.5088 58.9498 74.0704 58.3968 82.1442 57.9228C97.6124 56.959 121.992 56.1848 144.175 56.0268C149.105 56.0268 190.753 55.6634 194.83 58.46C196.031 63.9268 192.191 124.662 191.338 130.524C154.003 131.74 109.763 133.573 72.1112 132.657C71.4792 129.039 66.6444 101.12 65.175 80.738ZM71.6214 133.715C71.6246 133.679 71.6246 133.642 71.6214 133.605C98.2444 134.426 181.558 131.693 191.701 131.63C192.823 134.237 208.576 169.186 209.239 171.13C209.066 171.13 50.56 173.279 50.3546 173.437C52.3454 166.769 68.809 138.582 71.6214 133.715ZM115.056 239.575C113.886 241.851 78.4628 257.682 71.179 259.878C71.3203 259.15 71.3735 258.408 71.337 257.666C82.0968 253.938 105.449 244.094 115.925 237.126C115.725 237.977 115.434 238.804 115.056 239.591V239.575ZM116.146 236.084C112.986 237.948 109.968 239.244 71.3212 256.813C71.3229 256.098 71.2273 255.386 71.0368 254.696C76.0928 252.326 110.379 239.038 116.493 233.745C116.414 234.425 116.304 235.246 116.146 236.099V236.084ZM34.76 203.662C35.5198 204.557 35.9901 205.662 36.1087 206.83C36.2271 207.998 35.9884 209.174 35.4236 210.203C35.1708 210.598 35.7712 211.009 36.024 210.598C36.978 209.558 37.5419 208.22 37.6198 206.812C37.6974 205.403 37.2846 204.011 36.4506 202.872C44.1294 199.349 51.6818 196.031 53.7516 195.13C54.2696 196.182 54.5468 197.335 54.5631 198.509C54.5795 199.68 54.3348 200.842 53.8464 201.908C53.6568 202.414 54.2256 202.603 54.4942 202.272C55.3632 201.167 55.9041 199.841 56.0552 198.444C56.2061 197.047 55.9607 195.636 55.3474 194.372C57.0538 193.408 61.0354 191.212 62.9788 191.212C65.412 191.212 114.787 231.375 115.703 232.292C111.58 236.542 73.2962 251.694 70.073 253.242C63.279 251.662 21.8199 216.002 17.9331 212.336C20.3505 210.33 32.0424 204.926 34.76 203.662ZM16.7323 213.063C21.6619 217.882 62.7892 253.78 69.678 254.917C69.5401 255.512 69.4763 256.123 69.4884 256.734C58.4284 251.331 26.8285 223.965 16.3689 215.164C16.4163 215.164 16.6533 213.616 16.7797 213.063H16.7323ZM16.9693 218.482C16.5236 217.804 16.3026 217.003 16.3373 216.191C26.6705 226.619 55.8372 252.263 69.4726 257.603C69.4447 258.449 69.5298 259.293 69.7254 260.115C61.62 258.298 18.0437 219.778 17.0167 218.482H16.9693ZM304.529 258.646C294.322 278.902 17.3485 273.609 12.8614 265.709C10.9593 262.403 9.67445 258.778 9.06937 255.012C9.67888 256.347 10.697 257.453 11.9766 258.172C35.234 271.713 266.625 268.173 296.833 257.319C303.234 255.012 306.457 250.035 307.184 243.099C307.612 248.425 306.689 253.773 304.498 258.646H304.529Z" fill="#2E3032"/>
<path d="M67.9397 151.19C179.662 152.77 190.327 151.806 193.455 151.317C194.198 151.206 194.672 150.953 194.64 150.084C194.64 147.793 189.268 137.286 187.846 136.559C187.214 136.228 74.0859 137.823 73.6909 137.95C73.6174 137.967 73.5484 138.001 73.4884 138.047C73.4286 138.093 73.3789 138.151 73.3433 138.218C72.2689 139.972 67.0233 148.631 67.2603 150.59C67.2859 150.753 67.368 150.903 67.4919 151.012C67.616 151.122 67.7742 151.185 67.9397 151.19ZM74.1491 139.04C75.2867 138.898 186.582 137.792 187.262 137.855C188.441 139.552 189.497 141.331 190.422 143.18C187.83 143.18 72.0161 143.796 71.4157 143.812C72.1109 142.421 73.0273 140.841 74.1491 139.04ZM70.9891 144.57C71.6053 144.57 188.794 143.97 190.801 143.922C191.841 145.858 192.663 147.904 193.25 150.021C187.625 150.922 136.37 150.479 68.5085 150.021C69.1425 148.107 69.9627 146.261 70.9575 144.507L70.9891 144.57ZM155.14 156.562C154.826 155.864 154.311 155.276 153.66 154.872C153.011 154.466 152.255 154.263 151.49 154.287C147.477 154.287 113.776 153.355 110.742 154.587C108.805 156.934 107.307 159.61 106.318 162.487C106.223 163.182 106.571 163.498 106.997 163.546C116.477 164.573 147.904 165.552 156.057 164.051C157.068 163.862 157.194 162.787 156.989 161.76C156.5 159.986 155.881 158.248 155.14 156.562ZM107.44 162.487C108.347 159.924 109.579 157.487 111.105 155.235C113.507 154.445 144.744 156.088 151.538 156.072C151.942 156.058 152.342 156.161 152.69 156.367C153.037 156.575 153.318 156.878 153.497 157.242C154.265 158.882 154.864 160.598 155.282 162.361C147.272 163.609 113.254 162.898 107.44 162.487ZM264.871 158.585C262.643 155.519 251.473 155.662 247.728 155.772C244.568 155.772 233.082 156.294 233.082 159.39C233.095 159.641 233.167 159.886 233.294 160.103C233.42 160.32 233.596 160.503 233.808 160.639C234.109 160.876 232.039 181.7 234.883 192.871C235.815 196.568 237.016 198.401 240.539 199.933C247.302 202.872 258.52 202.224 263.023 195.952C263.923 194.119 263.734 188.778 263.813 187.151C270.812 188.541 276.547 185.697 278.033 178.161C278.965 173.31 277.764 170.134 275.694 168.207C274.312 167.081 272.676 166.306 270.93 165.949C269.183 165.591 267.375 165.66 265.661 166.153C265.602 166.173 265.537 166.179 265.476 166.169C265.412 166.159 265.353 166.136 265.303 166.098C265.252 166.061 265.21 166.012 265.182 165.955C265.153 165.899 265.138 165.837 265.14 165.774C265.14 164.936 265.44 159.264 264.871 158.585ZM234.851 158.916C239.117 156.42 256.497 156.23 262.106 158.774C262.296 158.869 263.007 159.232 263.007 159.39C263.007 159.548 262.28 159.928 262.106 160.007C257.872 161.918 242.751 162.787 234.804 159.88C234.251 159.58 234.804 158.98 234.804 158.916H234.851ZM266.104 167.764C267.54 167.351 269.054 167.292 270.518 167.591C271.983 167.891 273.352 168.541 274.509 169.487C276.216 171.067 277.069 173.784 276.279 177.813C276.122 179.214 275.636 180.557 274.862 181.736C274.088 182.913 273.046 183.892 271.823 184.591C269.232 185.758 266.314 185.981 263.576 185.223C263.441 185.175 263.298 185.154 263.156 185.163C263.012 185.172 262.872 185.21 262.745 185.275C262.617 185.341 262.505 185.431 262.414 185.542C262.323 185.653 262.256 185.78 262.217 185.919C261.79 187.119 262.391 191.97 261.522 195.035C257.524 200.455 247.302 200.944 241.25 198.401C238.185 197.089 237.332 195.73 236.51 192.46C234.393 184.702 234.267 168.902 234.741 161.128C239.718 163.483 256.955 164.162 263.734 160.686C263.734 165.584 263.133 166.406 264.366 167.401C264.604 167.581 264.879 167.706 265.171 167.77C265.462 167.832 265.765 167.83 266.056 167.764H266.104ZM112.622 201.245C108.473 197.725 104.009 194.594 99.2869 191.891C97.4679 190.818 95.5331 189.954 93.5199 189.316C91.8293 188.873 91.1183 189.742 91.4659 190.896C92.1781 192.552 93.1195 194.099 94.2625 195.493C97.898 200.095 102.079 204.239 106.713 207.833C113.76 213.727 122.892 220.868 129.56 225.94C129.9 226.189 130.285 226.367 130.695 226.463C131.104 226.56 131.529 226.575 131.944 226.506C132.359 226.436 132.756 226.285 133.112 226.06C133.468 225.836 133.775 225.542 134.016 225.197C135.185 223.918 135.912 221.674 134.6 220.457C133.083 219.099 123.809 210.361 112.622 201.245ZM97.4857 197.737L95.3211 194.245C96.0919 193.925 96.7434 193.372 97.1855 192.665L100.614 194.056C99.7537 194.227 98.9764 194.682 98.4084 195.351C97.8405 196.02 97.5153 196.86 97.4857 197.737ZM102.336 201.766C101.194 200.805 100.137 199.748 99.1763 198.606C99.2869 196.694 99.8873 195.841 101.799 195.778C103.073 196.386 104.276 197.134 105.386 198.006C104.536 198.212 103.778 198.693 103.227 199.371C102.676 200.05 102.363 200.892 102.336 201.766ZM129.354 224.755C127.601 223.286 104.28 203.504 102.842 202.24C102.963 201.355 103.349 200.528 103.95 199.869C104.551 199.208 105.338 198.746 106.207 198.543C111.658 202.588 119.495 209.287 133.162 220.663C132.63 220.635 132.099 220.726 131.605 220.926C131.112 221.126 130.667 221.432 130.305 221.822C129.942 222.211 129.669 222.676 129.505 223.183C129.34 223.69 129.289 224.226 129.354 224.755ZM254.554 242.261C256.529 243.604 257.903 242.988 259.183 241.124C262.343 236.637 273.403 216.776 273.403 216.618C273.403 216.46 273.53 216.76 273.008 210.377C272.986 210.137 272.899 209.907 272.757 209.712C272.616 209.517 272.424 209.365 272.202 209.27C271.981 209.174 271.738 209.139 271.499 209.171C271.26 209.201 271.033 209.296 270.844 209.445L265.44 213.379C265.44 213.379 253.448 238.169 253.321 238.39C253.104 239.084 253.107 239.828 253.327 240.521C253.548 241.213 253.976 241.82 254.554 242.261ZM271.286 211.372C271.381 212.526 271.507 214.058 271.602 215.117C270.429 214.555 269.2 214.116 267.936 213.806L271.286 211.372ZM266.767 214.88C268.137 215.85 269.719 216.48 271.381 216.713C271.144 217.124 259.073 239.149 258.946 239.37C258.579 238.623 257.976 238.019 257.231 237.65C256.485 237.282 255.639 237.17 254.822 237.332C256.055 235.041 266.325 215.67 266.767 214.88Z" fill="#2E3032"/>
<path d="M259.499 183.549C259.329 183.309 259.113 183.106 258.863 182.952C258.613 182.798 258.335 182.694 258.046 182.648C257.111 182.398 256.161 182.208 255.202 182.079C255.739 185.84 256.055 189.979 256.039 190.343C256.015 190.584 255.897 190.805 255.711 190.959C255.524 191.112 255.285 191.187 255.044 191.164C254.803 191.137 254.58 191.015 254.427 190.826C254.273 190.638 254.2 190.395 254.222 190.153C254.222 189.884 254.127 188.794 254.048 181.921C250.888 181.526 235.673 180.341 236.273 183.375C236.273 183.533 235.025 191.275 239.86 194.988C244.695 198.701 254.364 197.974 257.745 194.198C258.705 193.048 259.339 191.662 259.578 190.185C259.952 187.986 259.924 185.738 259.499 183.549ZM263.291 169.25C263.291 169.961 262.343 175.396 261.711 182.695L262.47 182.853C265.25 183.443 268.146 183.127 270.733 181.953C271.636 181.451 272.383 180.712 272.892 179.815C273.403 178.917 273.656 177.897 273.624 176.865C273.732 175.583 273.509 174.294 272.977 173.122C272.445 171.95 271.622 170.934 270.586 170.171C269.549 169.408 268.335 168.922 267.058 168.76C265.781 168.599 264.485 168.768 263.291 169.25ZM264.002 169.787C265.011 169.627 266.042 169.685 267.025 169.958C268.01 170.231 268.924 170.711 269.706 171.367C270.458 172.055 271.04 172.909 271.407 173.861C271.774 174.811 271.917 175.834 271.823 176.849C271.681 180.91 267.51 181.684 263.512 181.273C263.702 178.398 263.86 175.096 264.002 169.787ZM111.074 155.235C111.074 155.235 111.09 155.251 111.074 155.235V155.235ZM247.08 77.0405C247.076 77.322 247.128 77.6015 247.232 77.863C247.337 78.1244 247.491 78.3625 247.689 78.5639C247.885 78.765 248.121 78.9253 248.379 79.0353C248.638 79.1453 248.916 79.2034 249.198 79.2054C249.628 79.2146 250.051 79.0959 250.413 78.8638C250.775 78.6317 251.061 78.297 251.231 77.9023C251.402 77.5079 251.452 77.0712 251.374 76.6484C251.296 76.2252 251.094 75.8351 250.792 75.5277C250.492 75.2203 250.106 75.0092 249.685 74.9219C249.265 74.8345 248.826 74.8745 248.429 75.0368C248.03 75.1991 247.689 75.4763 247.449 75.8334C247.209 76.1902 247.08 76.6107 247.08 77.0405ZM74.1497 129.165C74.5131 129.876 74.9871 129.955 75.2873 129.734C75.5875 129.513 175.649 128.643 183.09 128.248C184.691 128.273 186.287 128.071 187.83 127.648C191.385 124.488 192.776 65.4117 191.385 62.6783C187.83 55.5841 76.5671 60.1506 69.7257 62.2204C64.2747 63.8636 71.6375 124.124 74.1497 129.165ZM69.4255 64.7797C69.4255 64.4953 69.7731 63.3893 70.0417 63.3103C77.6099 61.0351 187.499 57.2908 190.485 63.2316C190.74 64.42 190.856 65.6343 190.832 66.8498C191.101 73.7386 190.832 88.4955 190.121 101.72C189.979 104.248 188.857 124.962 187.214 126.842C180.657 128.232 79.6165 128.549 75.1293 128.722C72.5697 122.781 67.0397 75.2077 69.4255 64.7797ZM249.403 42.2015C249.832 42.211 250.255 42.0926 250.617 41.8611C250.979 41.6298 251.263 41.296 251.435 40.9025C251.607 40.5086 251.657 40.0731 251.581 39.6505C251.503 39.2279 251.303 38.8378 251.004 38.5296C250.704 38.2216 250.321 38.0096 249.901 37.9203C249.481 37.8312 249.044 37.8689 248.645 38.0289C248.246 38.1886 247.905 38.4635 247.662 38.8183C247.42 39.1731 247.29 39.5919 247.286 40.0211C247.279 40.3041 247.329 40.5853 247.433 40.8484C247.536 41.1116 247.691 41.3518 247.889 41.5546C248.085 41.7577 248.321 41.9191 248.581 42.0303C248.841 42.1415 249.12 42.1998 249.403 42.2015Z" fill="#2E3032"/>
<path d="M100.346 104.596H119.117C121.289 104.587 123.369 103.718 124.9 102.177C126.432 100.637 127.289 98.5521 127.285 96.3797V81.1485C127.285 78.9718 126.428 76.8825 124.9 75.333C123.371 73.7837 121.293 72.8986 119.117 72.8693H100.346C99.2579 72.8653 98.1795 73.0764 97.1732 73.4912C96.1666 73.9058 95.2522 74.5154 94.4826 75.285C93.713 76.0546 93.1034 76.969 92.6888 77.9753C92.2743 78.9819 92.0629 80.0603 92.0672 81.1485V96.3797C92.0712 97.463 92.2887 98.5345 92.7069 99.5337C93.1252 100.533 93.7362 101.44 94.505 102.202C95.274 102.965 96.1855 103.57 97.1875 103.98C98.1898 104.391 99.2634 104.6 100.346 104.596ZM93.4102 81.1485C93.4389 79.3223 94.1804 77.5797 95.4762 76.2927C96.7721 75.0055 98.5199 74.2761 100.346 74.2597H119.117C120.039 74.2494 120.954 74.4217 121.81 74.767C122.665 75.1123 123.444 75.6237 124.1 76.2715C124.757 76.9196 125.279 77.6909 125.636 78.5415C125.992 79.3921 126.177 80.3051 126.179 81.2275V96.3797C126.175 97.3033 125.989 98.2165 125.632 99.068C125.275 99.9195 124.753 100.692 124.098 101.342C123.442 101.992 122.664 102.507 121.81 102.856C120.955 103.206 120.04 103.383 119.117 103.379H100.346C99.4311 103.375 98.5259 103.191 97.6822 102.837C96.8385 102.483 96.0726 101.966 95.4286 101.316C94.7845 100.666 94.2746 99.8956 93.9284 99.0488C93.582 98.2016 93.4059 97.295 93.4102 96.3797V81.1485ZM151.095 115.877C151.411 116.809 152.201 116.604 152.423 116.019C152.723 115.182 154.477 109.162 154.698 108.119C155.914 107.74 152.486 108.925 163.088 105.07C163.198 105.027 163.292 104.952 163.359 104.855C163.426 104.758 163.462 104.643 163.462 104.525C163.462 104.407 163.426 104.292 163.359 104.194C163.292 104.097 163.198 104.022 163.088 103.98L146.845 97.4857C146.745 97.4386 146.635 97.4185 146.525 97.4271C146.415 97.436 146.309 97.4731 146.218 97.5357C146.128 97.5977 146.054 97.6831 146.006 97.7825C145.958 97.8819 145.937 97.9919 145.945 98.1019C145.945 98.1019 150.226 113.365 151.095 115.877ZM147.572 99.1763L161.255 104.564C159.422 105.243 156.325 106.413 154.84 107.013C154.176 107.266 153.908 107.377 153.75 107.582C153.592 107.787 154.145 106.555 151.822 113.712L147.572 99.1763ZM184.86 52.8507C184.878 52.9455 184.93 53.0308 185.005 53.0914C185.08 53.1523 185.175 53.1845 185.271 53.1825C185.603 53.1825 195.825 54.1621 197.911 53.6091C199.254 53.2457 199.491 50.8757 199.617 49.4853C199.775 47.3839 199.617 42.2331 198.732 40.4793C197.532 38.1093 188.668 38.8993 186.092 39.3575C185.409 39.4537 184.756 39.7022 184.181 40.0843C183.846 40.473 183.651 40.9625 183.628 41.4747C183.612 45.3009 184.025 49.1167 184.86 52.8507ZM185.318 41.3009C187.815 40.5267 194.925 40.2265 197.184 41.3009C197.958 43.3549 198.369 50.4175 197.437 52.0607C195.967 52.4399 186.993 52.4399 185.492 52.4557C185.445 51.2233 184.718 44.5715 185.318 41.3009ZM206.064 52.7875C206.085 52.8809 206.137 52.9645 206.211 53.0248C206.286 53.0848 206.378 53.1181 206.474 53.1193C206.806 53.1193 217.029 54.0989 219.114 53.5459C220.457 53.1825 220.694 50.8125 220.837 49.4221C220.979 47.3207 220.837 42.1699 219.936 40.4161C218.735 38.0303 209.871 38.8361 207.296 39.2943C206.614 39.3971 205.962 39.6451 205.384 40.0211C205.056 40.4141 204.863 40.901 204.831 41.4115C204.817 45.2377 205.23 49.0535 206.064 52.7875ZM206.522 41.2377C209.018 40.4477 216.128 40.1633 218.388 41.2377C219.162 43.2917 219.573 50.3543 218.64 51.9817C217.171 52.3767 208.197 52.3767 206.696 52.3925C206.648 51.1601 205.921 44.5083 206.522 41.2377ZM228.247 53.4827C228.265 53.5775 228.317 53.6628 228.392 53.7234C228.467 53.7843 228.561 53.8165 228.658 53.8145C228.989 53.8145 239.212 54.7941 241.298 54.2411C242.641 53.8777 242.878 51.5077 243.004 50.1173C243.162 48.0159 243.004 42.8651 242.119 41.1113C240.918 38.7413 232.055 39.5313 229.479 39.9895C228.797 40.0898 228.144 40.338 227.567 40.7163C227.233 41.105 227.038 41.5945 227.014 42.1067C226.999 45.9329 227.412 49.7487 228.247 53.4827ZM228.705 41.9329C231.201 41.1587 238.311 40.8585 240.571 41.9329C241.345 43.9869 241.756 51.0495 240.824 52.6927C239.354 53.0719 230.38 53.0719 228.879 53.0877C228.831 51.8553 228.105 45.2035 228.705 41.9329ZM206.206 77.0879C206.316 77.4039 206.569 77.4355 206.617 77.4197C206.964 77.4197 217.171 78.3993 219.257 77.8463C220.6 77.4829 220.837 75.1129 220.979 73.7225C221.121 71.6211 220.979 66.4703 220.094 64.7323C218.877 62.3465 210.014 63.1523 207.454 63.5947C206.765 63.6927 206.108 63.9409 205.526 64.3215C205.196 64.7185 205.001 65.2118 204.973 65.7277C204.959 69.5487 205.372 73.3591 206.206 77.0879ZM206.68 65.5381C209.176 64.7639 216.27 64.4637 218.53 65.5381C219.304 67.5921 219.715 74.6547 218.783 76.2979C217.313 76.6771 208.355 76.6771 206.854 76.6929C206.79 75.4605 206.064 68.8087 206.68 65.5381ZM243.146 64.0845C245.674 60.3557 247.886 56.9903 247.965 56.8323C248.044 56.6743 246.891 55.2523 246.211 56.2635C241.377 63.7053 242.04 62.9943 241.693 62.8679C238.912 61.8567 229.937 62.2043 228.531 63.5157C227.583 64.4005 227.947 67.6079 228.057 68.9825C227.046 68.4137 226.272 68.0029 225.987 67.8923C225.261 67.6079 225.308 68.3189 225.703 68.5717L228.168 70.1517C228.368 72.2281 228.689 74.291 229.132 76.3295C229.147 76.4257 229.197 76.5131 229.274 76.5743C229.349 76.6354 229.445 76.6665 229.542 76.6613C229.874 76.6613 240.097 77.6409 242.182 77.0879C244.9 76.3295 244.063 66.3597 243.146 64.0845ZM229.59 64.7323C233.307 63.8869 237.158 63.8168 240.903 64.5269L235.42 73.1695C234.867 72.8535 231.912 71.1155 229.448 69.7251C229.344 68.0759 229.391 66.4206 229.59 64.7797V64.7323ZM241.708 75.4763C240.223 75.8713 231.265 75.8713 229.764 75.8871C229.764 75.2551 229.527 73.1853 229.416 70.8943L235.42 74.6231C235.571 74.6398 235.725 74.613 235.862 74.5458C235.999 74.4789 236.114 74.374 236.194 74.2439C236.7 73.5961 239.244 69.8989 241.835 66.0911C242.325 68.9351 242.483 74.1175 241.74 75.4763H241.708ZM178.888 41.6801C179.317 41.6864 179.737 41.5652 180.098 41.3319C180.457 41.0987 180.739 40.7637 180.909 40.3698C181.077 39.9757 181.126 39.5405 181.047 39.1188C180.968 38.6973 180.766 38.3087 180.466 38.0021C180.166 37.6956 179.783 37.4851 179.363 37.3971C178.943 37.3092 178.507 37.348 178.109 37.5086C177.712 37.6689 177.371 37.9438 177.13 38.2983C176.889 38.6528 176.757 39.0711 176.755 39.4997C176.755 40.0699 176.977 40.6175 177.376 41.0251C177.775 41.4328 178.317 41.6677 178.888 41.6801Z" fill="#2E3032"/>
</svg>
