<svg width="290" height="302" viewBox="0 0 290 302" fill="none" xmlns="http://www.w3.org/2000/svg">
<path d="M98.8169 230.158C101.451 229.226 104.149 228.486 106.891 227.946L107.223 229.163C107.26 229.306 107.347 229.431 107.469 229.515C107.591 229.6 107.739 229.637 107.886 229.621L118.74 228.357C121.727 221.547 127.209 211.23 127.288 211.072C127.209 208.496 127.288 206.332 127.288 203.867C121.079 206.174 109.593 210.55 103.589 213.347C103.453 213.434 103.348 213.563 103.288 213.713C103.229 213.863 103.218 214.028 103.257 214.184C103.257 214.184 103.367 214.579 103.51 215.148C100.571 215.148 91.7701 214.721 89.6529 216.728C89.3237 217.186 89.162 217.744 89.1947 218.308C89.0683 220.488 90.1585 237.426 91.8965 242.403C92.7971 245.01 94.6931 244.726 95.9887 242.229C97.4883 238.47 98.451 234.518 98.8485 230.49C98.8485 230.284 98.8011 230.3 98.8169 230.158ZM96.9999 216.017C98.9275 215.859 99.5279 215.891 103.668 215.764C104.41 218.577 105.943 224.359 106.733 227.314C103.945 227.746 101.194 228.384 98.5009 229.226C97.6618 224.868 97.16 220.452 96.9999 216.017Z" fill="#2E3032"/>
<path d="M244.24 77.7354C244.635 77.1824 244.129 76.4714 243.703 75.9184C244.912 74.6757 246.252 73.5682 247.7 72.6162C250.145 71.3979 252.379 69.7981 254.32 67.8762C255.126 67.0388 256.643 65.3166 256.074 64.3054C255.505 63.2942 254.494 63.231 253.119 63.8156C253.715 63.1905 254.202 62.4692 254.557 61.6826C255 60.4502 253.957 59.4548 251.697 60.3712C252.519 59.0598 252.709 57.6852 251.318 57.0216C250.196 56.4844 248.553 57.7642 247.605 58.6016C245.743 60.2281 243.996 61.9808 242.375 63.8472C241.38 61.7616 239.8 59.36 237.825 60.1184C235.85 60.8768 237.383 64.2738 238.394 66.1224L234.807 68.603C234.265 68.3103 233.653 68.1738 233.038 68.208C228.961 68.9032 210.238 83.1548 208.342 83.1548C206.889 83.1548 186.127 73.2008 168.179 70.3252C168.145 70.2175 168.08 70.1221 167.993 70.0494C167.906 69.9767 167.801 69.9299 167.689 69.9144C164.558 69.3801 161.385 69.1422 158.209 69.2034C158.113 69.21 158.019 69.2373 157.935 69.2836C157.85 69.3301 157.777 69.3944 157.719 69.472H156.392C156.076 68.1922 154.907 65.2376 154.496 64.1C155.57 63.1678 157.055 62.6938 157.83 61.1928C159.252 58.412 159.188 53.5772 158.793 50.4804C160.579 49.1216 160.626 46.9412 160.215 44.7134C160.057 43.8128 159.568 41.7746 158.809 41.269C158.383 40.9846 157.482 41.269 156.708 41.5534C155.934 39.7522 155.934 40.5738 156.25 39.847C156.397 39.512 156.483 39.1535 156.502 38.7884C157.34 39.0412 159.078 37.3664 158.477 35.1544C158.163 34.3627 157.777 33.6011 157.324 32.8792C157.545 32.342 158.019 31.6942 156.534 29.7192C155.894 29.0292 155.064 28.5451 154.148 28.3288H153.421C152.897 27.5678 152.127 27.0099 151.241 26.7488C149.904 26.4075 148.484 26.6063 147.291 27.3018C146.975 27.5388 146.722 27.8548 146.406 28.076C145.691 27.6422 144.873 27.413 144.036 27.413C143.2 27.413 142.381 27.6422 141.666 28.076C141.248 28.24 140.867 28.4871 140.547 28.8019C140.227 29.1171 139.973 29.4934 139.802 29.9088C139.028 29.6416 138.206 29.5388 137.39 29.6069C136.575 29.675 135.781 29.9123 135.062 30.3038C132.333 31.7838 130.29 34.2736 129.374 37.24C129.349 37.6873 129.349 38.1357 129.374 38.583H129.2C126.83 38.2354 123.812 43.8602 126.23 48.2368C126.514 48.7582 126.877 49.248 127.225 49.8168C128.236 51.3968 127.841 51.8708 130.101 53.7984C130.764 54.3672 130.875 54.3198 131.286 54.6674C131.696 55.015 131.538 54.8412 131.775 55.726C131.904 56.2471 132.136 56.7378 132.456 57.169C132.776 57.6002 133.179 57.9636 133.64 58.2382C133.809 59.7837 134.467 61.2345 135.52 62.3778C135.853 62.7513 136.243 63.0707 136.673 63.3258C136.79 63.3913 136.92 63.4292 137.053 63.4364C137.527 66.3752 138.111 70.1988 138.364 71.8262L136.958 72.5846C135.118 73.3249 133.329 74.1853 131.602 75.16C131.466 75.2539 131.37 75.3944 131.333 75.555C129.658 76.4398 128.078 77.2772 127.178 77.8144C114.633 85.2562 79.0035 134.315 78.6401 136.559C78.6002 136.688 78.6002 136.825 78.6401 136.954C79.1509 137.769 79.7731 138.508 80.4887 139.15C80.2684 139.553 80.0032 139.928 79.6987 140.272C76.5387 142.342 71.799 145.423 69.2552 148.172C69.0765 148.331 68.9426 148.534 68.8668 148.76C68.7907 148.987 68.7749 149.229 68.8211 149.463C68.8674 149.698 68.9739 149.916 69.1305 150.098C69.2871 150.279 69.4879 150.415 69.7131 150.494C70.1871 150.652 70.2664 150.605 73.3474 148.914C72.5005 149.657 71.8079 150.559 71.3092 151.569C71.1038 152.438 71.8938 152.943 72.8892 152.785C73.4491 152.638 73.9822 152.404 74.4692 152.09C74.1839 152.53 74.0325 153.044 74.0325 153.568C74.0325 154.092 74.1839 154.605 74.4692 155.045C76.0492 157.036 80.1888 150.763 82.3692 149.215C83.254 150.336 84.4545 152.959 86.3663 152.264C88.0253 151.648 86.2083 147.998 86.3663 146.939C87.0092 146.322 87.6958 145.752 88.4206 145.233C89.6392 146.136 91.0327 146.777 92.5125 147.113C95.1195 147.113 122.327 119.653 124.397 117.457C123.654 124.44 119.91 154.413 120.7 160.243C121.063 162.882 127.399 163.261 130.069 163.403C129.263 182.363 128.726 211.087 128.584 211.388C124.397 220.409 123.259 222.874 121.853 225.608C119.293 230.506 108.518 248.581 107.301 252.689C107.127 253.337 107.112 253.589 107.791 254.79C105.755 256.931 103.866 259.206 102.135 261.6C101.266 263.18 104.994 277.906 107.633 283.12C108.233 284.289 109.213 286.09 110.524 286.044C114.474 285.9 114.459 271.712 114.348 267.746C114.348 267.624 114.303 267.507 114.222 267.414C114.938 266.345 115.719 265.322 116.56 264.349C117.063 264.696 117.591 265.001 118.14 265.266C118.677 265.503 119.278 265.092 119.72 264.728C124.981 260.589 153.358 225.228 159.441 208.544C162.206 200.928 165.888 190.405 166.93 182.948C167.568 178.233 167.627 173.457 167.104 168.728C167.104 168.66 167.131 168.596 167.178 168.549C167.226 168.501 167.29 168.475 167.357 168.475C167.424 168.475 167.489 168.501 167.536 168.549C167.584 168.596 167.61 168.66 167.61 168.728C168.401 173.483 168.555 178.325 168.068 183.121C166.899 193.47 158.73 215.037 154.369 222.969C158.13 222.274 165.777 220.757 169.474 219.651C181.798 215.906 193.174 204.736 194.17 192.191C194.492 186.28 194.492 180.358 194.17 174.447C194.063 166.288 193.003 158.169 191.01 150.257C194.359 148.44 197.424 146.307 198.42 144.348C200.553 140.161 194.912 116.066 193.68 109.304C200.426 110.046 211.913 111.389 217.269 107.202C223.4 102.273 236.64 88.4004 244.24 77.7354ZM113.495 266.877C110.651 265.155 106.669 261.063 106.069 257.855C106.717 257.034 107.396 256.275 108.028 255.422C110.169 258.69 112.839 261.579 115.928 263.97C115.061 264.89 114.248 265.861 113.495 266.877ZM239.105 66.5648C239.186 66.5128 239.246 66.4312 239.268 66.3373C239.292 66.2431 239.279 66.1437 239.231 66.0592C238.678 65.0322 237.019 61.414 238.173 61.0032C238.836 60.7504 239.421 61.1612 239.911 61.7142C240.659 62.6631 241.24 63.7314 241.633 64.8742C241.662 64.967 241.716 65.0503 241.79 65.1149C241.862 65.1796 241.951 65.2229 242.046 65.241C242.143 65.2589 242.241 65.2502 242.334 65.2163C242.424 65.1824 242.504 65.1241 242.565 65.048C244.145 63.2942 247.842 59.2968 249.928 58.2224C251.508 57.4008 251.887 58.9176 248.016 62.4568C247.127 63.1348 246.273 63.8573 245.456 64.6214C245.412 64.6835 245.387 64.7581 245.387 64.8348C245.387 64.9113 245.412 64.986 245.456 65.048C245.456 65.4588 245.788 65.917 246.357 65.4904C247.731 64.2847 249.183 63.1712 250.702 62.1566C251.478 61.6056 252.379 61.2577 253.325 61.1454C252.851 62.599 248.443 66.549 248.063 66.9914C247.944 67.0994 247.87 67.2499 247.86 67.4111C247.85 67.5723 247.903 67.7311 248.008 67.8532C248.115 67.9753 248.264 68.0511 248.424 68.0644C248.586 68.0776 248.745 68.027 248.869 67.9236C250.623 66.786 253.688 64.1316 254.747 64.5266C255.805 64.9216 252.661 67.8604 251.871 68.5556C247.337 72.4898 248.506 69.9618 243.26 75.3022C240.977 72.8009 238.356 70.6311 235.471 68.8558L239.105 66.5648ZM170.454 142.136C170.185 139.956 169.853 137.602 169.443 135.153L170.122 134.252C173.282 130.191 174.23 123.729 173.93 118.657C175.62 126.068 176.963 133.351 177.99 140.588L170.454 142.136ZM146.959 88.037C142.804 84.877 136.12 79.426 132.234 75.6972L138.554 72.5372C144.358 77.958 149.325 84.2091 153.295 91.0864C159.366 102.239 163.869 114.175 166.678 126.557L144.147 94.6888L147.086 88.59C147.125 88.4961 147.133 88.3923 147.111 88.2935C147.088 88.1941 147.036 88.1048 146.959 88.037ZM157.64 70.1198C157.735 70.2936 158.825 72.6162 160.484 76.6768C160.484 76.8506 160.184 80.8006 160.042 82.191C158.025 81.3918 156.123 80.3292 154.385 79.031C154.733 77.6564 156.297 71.4154 156.408 70.0092L157.64 70.1198ZM152.031 87.089C152.142 86.8046 152.252 86.4254 152.379 85.983L153.437 86.536C154.038 86.931 153.801 85.7302 154.338 89.2062C154.338 89.7908 154.496 90.4386 154.527 91.1496C153.801 89.8382 152.9 88.432 152.047 87.089H152.031ZM151.146 85.7618C148.162 81.528 144.763 77.601 141.003 74.0382L152.9 79.2048C152.442 80.295 151.778 83.6288 151.162 85.7618H151.146ZM163.296 95.0206C161.716 90.7072 160.5 85.8882 159.899 84.6242C159.935 84.2301 159.935 83.8333 159.899 83.4392C160.129 83.5242 160.367 83.5774 160.61 83.5972C160.763 83.5989 160.911 83.5455 161.027 83.4467C161.144 83.3481 161.22 83.2108 161.242 83.06C161.369 82.5386 161.574 79.9 161.606 79.3154C166.203 90.9198 170.039 102.811 173.092 114.913C164.165 95.9212 165.54 101.42 163.312 95.0206H163.296ZM176.363 125.183C172.761 107.913 166.425 86.378 159.22 70.42C161.867 70.4214 164.508 70.6329 167.12 71.052C168.463 83.06 167.341 82.6492 168.242 83.1232C169.142 83.5972 174.562 85.7776 175.368 86.1094C175.289 87.326 176.426 122.118 176.379 125.183H176.363ZM158.177 42.2802C159.001 44.0777 159.291 46.0736 159.015 48.0314C158.886 48.5298 158.622 48.9826 158.251 49.3394C157.88 49.6964 157.418 49.9435 156.915 50.0532C156.413 50.163 155.889 50.1311 155.403 49.961C154.917 49.7909 154.489 49.4893 154.164 49.09C153.41 47.502 152.843 45.8318 152.473 44.113C152.9 43.56 157.45 42.454 158.177 42.2802ZM136.436 58.0802C135.86 57.8173 135.269 57.5855 134.667 57.385C134.263 57.219 133.903 56.9627 133.614 56.6358C133.324 56.3089 133.113 55.9202 132.998 55.4991C132.881 55.0782 132.863 54.6364 132.945 54.2072C133.026 53.7783 133.204 53.3735 133.466 53.0242C134.461 52.1868 135.362 52.2342 136.184 53.4824C136.705 54.4462 136.689 54.5252 136.926 54.62C136.995 54.6499 137.068 54.6651 137.142 54.6642C137.216 54.6634 137.29 54.6467 137.357 54.6154C137.424 54.5841 137.485 54.5384 137.532 54.4821C137.581 54.4258 137.616 54.3597 137.637 54.2882C137.872 53.2994 137.908 52.2738 137.748 51.2704C137.558 50.1802 137.527 45.3454 137.558 45.1874C138.021 45.4307 138.538 45.5453 139.059 45.5192C141.919 45.4086 142.488 43.9392 143.625 42.7384C144.937 42.8648 145.205 43.4968 146.691 42.7384C147.386 42.3428 148.024 41.8539 148.587 41.2848C149.041 41.4707 149.48 41.6927 149.898 41.9484C150.845 42.4037 151.913 42.5436 152.945 42.3474C153.977 42.1512 154.92 41.6292 155.633 40.8582C155.807 41.19 155.965 41.5218 156.107 41.8694C154.655 42.3201 153.288 43.0087 152.063 43.9076C151.794 44.2394 152.189 46.0406 152.284 46.4672C150.961 46.6338 149.679 47.0463 148.508 47.6838C148.271 46.8622 147.749 45.3296 146.928 44.903C146.68 44.8274 146.417 44.8274 146.169 44.903C144.747 45.1242 139.644 46.6568 139.028 47.4942C138.49 48.0788 140.023 52.5976 140.497 53.3402C142.314 56.1526 147.639 55.331 148.634 52.0446C148.88 50.9418 148.88 49.7978 148.634 48.695C149.092 48.695 150.467 48.2052 150.625 48.1578C151.715 50.6068 152.031 50.749 153.295 53.3876C153.121 53.5298 152.837 53.7668 152.6 53.9248C151.478 54.6674 151.241 54.541 151.304 54.857C151.323 54.9196 151.363 54.9736 151.419 55.0084C151.474 55.0434 151.54 55.0569 151.604 55.0466C152.268 54.9518 152.916 54.7714 153.532 54.5094C153.901 54.3718 154.205 54.1012 154.385 53.751C154.828 52.7556 152.379 49.011 151.415 47.8892C151.604 47.8892 152.047 47.5732 152.379 47.3994C152.821 49.169 153.121 50.5594 154.828 51.2546C155.322 51.4408 155.847 51.5255 156.373 51.504C156.9 51.4821 157.416 51.3543 157.893 51.1282C158.146 53.909 158.098 58.4278 156.771 60.8926C156.092 62.1724 154.417 62.6622 153.342 63.7208C153.026 64.021 153.232 64.4476 153.342 64.9058C155.096 69.788 155.128 69.7722 155.033 70.4042C154.568 73.0273 153.919 75.6145 153.09 78.1462C152.695 77.9724 148.255 75.6182 139.565 72.237C139.296 70.4516 137.858 60.9242 137.4 59.1704C137.432 58.5542 137.353 58.412 136.436 58.0012V58.0802ZM147.496 51.6338C146.991 53.356 144.605 54.0986 142.899 53.6246C141.192 53.1506 141.082 52.2816 140.276 50.2276C139.898 49.4431 139.637 48.6071 139.502 47.747C140.023 47.1782 145.727 46.009 146.438 45.8984C147.435 47.6045 147.81 49.6036 147.496 51.5548V51.6338ZM85.6714 146.497C85.071 147.082 85.8765 148.993 86.0029 150.652C86.0029 150.795 86.0029 151.411 85.9081 151.458C85.0391 151.743 84.2333 150.431 83.7435 149.641C83.2537 148.851 82.7639 147.777 81.9897 148.061C80.4097 148.804 76.7441 153.67 75.3063 154.176C74.5795 152.785 78.7352 148.82 78.8774 148.598C78.9383 148.497 78.9702 148.38 78.9696 148.263C78.969 148.144 78.936 148.027 78.8742 147.927C78.8122 147.826 78.7237 147.744 78.6185 147.689C78.5131 147.635 78.395 147.611 78.277 147.619C77.9926 147.619 77.8027 147.872 77.3603 148.267C76.0147 149.579 74.4746 150.677 72.7941 151.521C74.3178 149.773 75.9483 148.122 77.6763 146.576C77.7619 146.488 77.8219 146.379 77.8504 146.26C77.8504 146.26 77.5186 145.423 76.8708 145.754C75.9544 146.26 71.4985 148.835 70.0926 149.499C69.903 149.373 70.0136 149.183 70.0926 148.993C72.3201 146.26 77.2184 142.942 80.2201 140.841C80.5726 140.477 80.8659 140.062 81.0891 139.608C83.1684 141.542 85.3861 143.323 87.7251 144.933C87.0046 145.406 86.3183 145.928 85.6714 146.497ZM122.438 160.859C122.09 160.638 121.837 160.433 121.79 160.148C120.921 153.702 125.756 117.172 125.677 115.734C125.677 115.65 125.66 115.567 125.627 115.489C125.595 115.411 125.546 115.341 125.486 115.282C125.425 115.223 125.354 115.177 125.275 115.146C125.198 115.115 125.113 115.1 125.029 115.102C124.223 115.102 125.645 115.102 105.516 134.378C104.189 135.627 94.0451 145.328 92.3545 145.976C90.0319 145.802 81.2945 138.834 79.8725 136.638C82.6217 131.076 115.96 85.3194 127.494 78.32C128.378 77.7828 129.895 76.9454 131.554 76.0606C132.129 76.6018 132.746 77.0931 133.403 77.53C137.068 81.006 142.172 85.3352 146.043 88.59L143.025 94.5782C142.979 94.6575 142.955 94.7474 142.955 94.839C142.955 94.9304 142.979 95.0203 143.025 95.0996C167.531 130.255 167.167 129.86 167.325 129.86C168.896 137.983 169.873 146.21 170.248 154.476C170.248 156.704 170.248 156.514 170.343 156.356C170.438 156.198 170.343 156.467 170.343 156.467C166.52 160.638 128.679 164.525 122.438 160.859ZM209.78 108.514C202.623 109.509 194.533 108.024 192.969 107.961C192.1 103.749 190.367 99.7626 187.881 96.253C187.843 96.2019 187.788 96.1668 187.725 96.1553C187.663 96.1435 187.598 96.1559 187.544 96.1898C187.49 96.2237 187.451 96.2768 187.434 96.3383C187.418 96.3998 187.425 96.4653 187.455 96.5216C188.371 98.386 191.436 106.428 192.195 108.387C191.958 109.146 199.336 139.656 197.251 143.764C195.386 147.477 184.532 152.153 180.613 153.496C179.839 144.7 178.573 135.954 176.821 127.3C177.358 122.75 176.663 95.7 176.458 85.6986C176.451 85.5825 176.413 85.4702 176.346 85.3754C176.279 85.28 176.187 85.2062 176.079 85.1614L168.984 82.1752C168.953 78.4205 168.715 74.6702 168.273 70.9414C185.985 74.0066 206.62 84.1344 208.342 84.1502C210.839 84.1502 229.388 69.9302 233.227 69.3614C234.934 69.0928 242.265 75.4918 243.118 77.2614C235.629 87.721 222.467 101.467 216.369 106.223C214.404 107.536 212.136 108.325 209.78 108.514Z" fill="#2E3032"/>
<path d="M145.869 48.4738C145.849 48.3701 145.81 48.2713 145.752 48.1831C145.694 48.0946 145.619 48.0185 145.532 47.959C145.444 47.8998 145.346 47.8582 145.242 47.8366C145.14 47.8151 145.033 47.8142 144.929 47.8341C144.825 47.8536 144.726 47.8935 144.638 47.9515C144.55 48.0096 144.473 48.084 144.414 48.1713C144.355 48.2586 144.313 48.3569 144.292 48.4603C144.271 48.5637 144.269 48.6703 144.289 48.774C144.605 50.354 144.668 50.7174 145.363 50.7174C145.495 50.7177 145.624 50.6855 145.74 50.6235C145.856 50.5611 145.955 50.4712 146.026 50.3612C146.098 50.2515 146.142 50.1253 146.153 49.9943C146.164 49.8633 146.143 49.7318 146.09 49.6114C146.043 49.3586 145.901 48.616 145.869 48.4738ZM150.704 58.9334C151.731 59.2336 152.71 58.7438 152.679 58.491C152.647 58.2382 152.679 58.3646 151.288 57.8432C150.356 57.4956 149.329 56.2632 148.966 56.4528C148.602 56.6424 149.155 57.6536 149.282 57.8432C149.62 58.356 150.121 58.7401 150.704 58.9334ZM179.602 43.9234C177.532 52.5976 176.015 59.9604 175.763 61.4298C175.594 62.069 175.562 62.7366 175.668 63.389C176.505 65.1744 187.328 68.6978 188.703 68.0026C190.077 67.3074 193.648 59.2652 197.804 50.9702C200.349 51.0515 202.896 50.8662 205.403 50.4172C208.043 49.9329 210.612 49.1208 213.051 47.9998C218.391 45.535 224.237 34.9806 225.027 29.6718C225.619 23.908 224.399 18.1031 221.535 13.066C208.279 -9.92299 169.395 2.44841 172.555 27.9812C173.457 33.8235 175.889 39.3236 179.602 43.9234ZM189.24 62.7412C189.24 62.994 188.956 62.9624 187.66 62.7412C185.01 62.4083 182.443 61.5887 180.092 60.3238C178.986 59.7234 178.686 59.597 178.796 59.3284C178.907 59.0598 179.144 59.1546 180.85 59.6286C181.008 59.6286 185.906 61.2086 187.312 61.6984C189.129 62.52 189.24 62.52 189.24 62.7412ZM188.956 37.0346C190.642 37.1219 192.324 36.7741 193.838 36.0234C195.244 36.7048 196.766 37.1176 198.325 37.24C195.671 42.1854 190.283 52.2658 188.545 57.6378L181.846 55.7892C183.426 51.9024 186.917 42.8016 188.924 37.0346H188.956ZM188.403 35.7232C187.223 35.5451 186.134 34.9849 185.304 34.1288C184.474 33.2725 183.947 32.1676 183.805 30.9832C183.362 27.8232 185.385 24.284 188.434 25.1214C190.346 25.6428 190.583 27.1596 190.251 29.0714C189.967 30.4618 188.94 33.9536 188.371 35.66L188.403 35.7232ZM192.7 31.9312C192.869 30.8973 193.257 29.9114 193.838 29.0398C194.114 28.5647 194.519 28.1766 195.004 27.9197C195.49 27.6626 196.038 27.5471 196.587 27.5862C197.756 27.9338 198.262 30.1458 197.298 31.5362C196.371 32.7655 195.219 33.806 193.901 34.6014C193.447 34.3354 193.086 33.9369 192.866 33.4595C192.646 32.9823 192.576 32.4489 192.669 31.9312H192.7ZM178.18 11.8494C185.258 3.33321 198.578 -0.0479869 208.2 3.45961C213.427 5.25395 217.823 8.88706 220.571 13.6822C223.296 18.4753 224.461 23.997 223.905 29.4822C223.178 34.396 217.585 44.6028 212.671 46.8622C208.179 48.9116 203.277 49.9059 198.341 49.7694C197.804 49.7694 197.235 49.7694 197.029 50.1486C196.097 52.0446 194.391 55.7102 192.716 59.1546C191.559 58.5961 190.36 58.1311 189.129 57.7642C190.962 52.5186 196.745 42.217 199.494 37.2242C201.876 37.4282 204.271 37.0148 206.446 36.0234C207.033 35.714 207.521 35.2435 207.851 34.6666C208.18 34.0901 208.34 33.4313 208.308 32.7677C208.276 32.1044 208.055 31.4638 207.673 30.9209C207.29 30.3782 206.761 29.9556 206.146 29.7034C203.697 28.5026 201.501 31.3782 200.221 33.7956C199.873 34.4276 199.478 35.1702 199.036 36.0076C197.758 35.9237 196.497 35.6632 195.291 35.2334C196.492 34.3888 197.559 33.3661 198.451 32.1998C198.952 31.4443 199.205 30.5523 199.177 29.6468C199.148 28.741 198.84 27.8666 198.293 27.1438C197.864 26.6454 197.268 26.3205 196.616 26.2303C195.964 26.1401 195.302 26.2909 194.754 26.654C193.647 27.334 192.761 28.3188 192.2 29.4903C191.64 30.6618 191.43 31.9703 191.594 33.2584C191.765 33.9855 192.158 34.6422 192.716 35.1386C191.68 35.5678 190.567 35.783 189.445 35.7706C190.077 33.9062 191.104 30.5408 191.373 29.1662C191.542 28.3825 191.578 27.5764 191.484 26.7804C191.361 26.0973 191.044 25.4638 190.57 24.9565C190.097 24.4489 189.486 24.0895 188.813 23.9206C184.974 22.8304 182.146 27.0806 182.699 31.0464C182.854 32.4676 183.465 33.8005 184.438 34.8479C185.411 35.8953 186.696 36.6011 188.102 36.8608C186.08 42.5488 182.92 51.7286 181.34 55.647L177.864 54.7464C180.092 43.56 180.36 43.8286 180.044 43.6864C176.454 39.1093 174.158 33.6531 173.393 27.8864C173.02 25.0269 173.254 22.1211 174.079 19.3583C174.903 16.5951 176.301 14.0367 178.18 11.8494ZM200.11 36.1024C201.216 34.0958 203.428 29.7034 205.577 30.7778C206.006 30.951 206.382 31.2383 206.659 31.6086C206.939 31.9789 207.11 32.4181 207.157 32.8792C207.126 35.66 202.796 36.1498 200.047 36.1024H200.11ZM260.593 43.0702C262.497 41.9504 264.746 41.5681 266.913 41.9958C269.293 42.0383 271.567 42.9901 273.268 44.656C274.971 46.3219 275.968 48.5752 276.06 50.9544C274.629 50.1239 272.955 49.8114 271.321 50.0696C267.355 50.4172 262.173 52.566 262.868 56.3896C263.437 59.5496 267.608 59.123 270.768 58.2698C273.928 57.4166 276.439 55.8682 277.088 52.8188C280.926 55.6154 281.828 60.5134 281.986 65.3008C281.986 65.3677 282.012 65.4321 282.061 65.4795C282.107 65.5269 282.173 65.5536 282.239 65.5536C282.305 65.5536 282.371 65.5269 282.417 65.4795C282.466 65.4321 282.492 65.3677 282.492 65.3008C282.601 59.9446 281.638 54.699 277.26 51.6496C277.306 50.2779 277.071 48.9113 276.574 47.6324C276.077 46.3537 275.321 45.1894 274.362 44.2098C273.4 43.2305 272.249 42.4566 270.98 41.9346C269.711 41.4129 268.348 41.1541 266.976 41.1742C264.782 40.8539 262.547 41.3124 260.656 42.4698C260.071 42.7542 260.34 43.1808 260.593 43.0702ZM275.002 54.3988C273.217 56.7372 268.161 57.9538 265.823 57.5588C264.954 57.4166 264.243 57.0532 264.053 56.1526C263.484 52.9926 268.935 51.2704 272.19 51.1598C273.515 51.0581 274.836 51.3971 275.95 52.1236C275.83 52.9498 275.505 53.7323 275.002 54.3988ZM253.356 24.6C255.047 22.5144 253.909 18.8804 249.185 18.8646C247.352 18.8646 246.468 20.729 246.594 22.5144C246.878 26.7646 251.666 26.6382 253.356 24.6ZM247.7 22.4354C247.7 21.3926 248.19 20.0338 249.28 20.0496C251.824 20.0496 252.993 21.2346 252.993 22.546C252.93 25.5322 247.495 27.0806 247.7 22.4354ZM247.052 201.56C233.164 196.014 226.718 222.858 215.373 245.926C215.301 246.895 215.334 247.871 215.468 248.834C215.468 251.251 215.737 267.256 217.143 269.073C217.522 269.8 219.118 269.073 219.86 268.615C226.167 264.711 232.111 260.248 237.62 255.28C237.667 255.226 237.701 255.164 237.724 255.096C237.745 255.027 237.753 254.956 237.746 254.885C240.685 250.698 251.697 228.894 254.368 217.96C256.232 210.218 254.383 204.451 247.052 201.56ZM252.013 221.626C244.578 220.673 237.389 218.325 230.826 214.706C234.523 207.706 239.089 199.727 246.626 202.729C255.015 206.063 254.842 212.968 252.013 221.579V221.626ZM225.722 262.706C225.236 262.299 224.707 261.949 224.142 261.663C222.007 260.578 219.54 260.34 217.238 261C217.08 259.119 216.179 246.89 216.179 246.78C228.013 251.109 224.363 249.229 236.087 255.059C234.855 256.228 230.225 259.467 225.722 262.674V262.706ZM233.875 216.981C235.415 217.822 236.998 218.587 238.615 219.272C234.993 224.96 231.793 230.907 229.04 237.063C226.386 242.608 226.481 242.577 223.779 248.628C222.199 248.123 220.619 247.649 219.039 247.175C220.745 243.778 232.88 218.94 233.875 216.949V216.981ZM224.395 248.786C229.53 239.575 234.76 228.12 239.247 219.477C240.827 220.141 242.407 220.678 243.987 221.152C243.15 222.732 240.701 226.935 240.053 228.151C239.405 229.368 232.911 242.166 232.453 243.146C231.726 244.726 229.735 249.134 229.119 250.54C227.508 249.829 225.959 249.292 224.332 248.755L224.395 248.786ZM229.688 250.745C230.652 248.992 234.618 241.629 235.107 240.681C235.85 239.211 244.129 222.29 244.587 221.31C246.041 221.721 247.574 222.068 248.553 222.258C245.662 230.158 237.335 245.373 234.333 252.878C231.6 251.599 230.984 251.283 229.625 250.714L229.688 250.745ZM230.652 215.164L233.48 216.744C227.78 226.45 222.816 236.569 218.628 247.017L216.258 246.29C225.438 226.729 225.864 224.17 230.589 215.132L230.652 215.164ZM237.161 254.253L234.776 253.115C237.351 248.059 245.409 235.088 249.09 222.369C249.975 222.527 250.844 222.669 251.682 222.779C247.621 233.613 242.747 244.124 237.098 254.221L237.161 254.253ZM187.66 264.507C188.289 263.986 188.74 263.28 188.946 262.489C189.153 261.697 189.107 260.861 188.813 260.099C188.679 258.998 188.175 257.975 187.382 257.2C186.59 256.424 185.556 255.941 184.453 255.832C183.349 255.721 182.241 255.99 181.311 256.593C180.38 257.196 179.682 258.099 179.333 259.151C177.311 257.84 175.115 256.449 173.013 255.122C174.593 253.021 179.239 253.953 179.713 255.675C179.723 255.742 179.76 255.803 179.814 255.842C179.869 255.882 179.938 255.899 180.005 255.888C180.072 255.878 180.131 255.841 180.172 255.787C180.212 255.732 180.229 255.663 180.218 255.596C179.981 252.847 174.262 251.235 171.955 254.474C169.917 253.226 167.389 251.709 165.271 250.556C167.088 248.976 171.149 249.861 171.591 251.504C171.612 251.56 171.652 251.607 171.705 251.637C171.756 251.666 171.818 251.676 171.876 251.664C171.935 251.653 171.988 251.621 172.026 251.574C172.063 251.528 172.083 251.468 172.081 251.409C171.876 248.849 166.583 247.127 164.181 249.94C163.175 249.376 162.117 248.91 161.021 248.549C160.821 248.466 160.601 248.443 160.388 248.482C160.175 248.522 159.977 248.622 159.82 248.77C155.823 253.747 142.346 266.672 136.12 268.173C135.964 268.197 135.816 268.261 135.692 268.36C135.569 268.459 135.474 268.588 135.416 268.735C135.358 268.883 135.34 269.043 135.363 269.199C135.388 269.355 135.453 269.503 135.552 269.626C136.918 271.014 138.484 272.191 140.197 273.118C138.617 274.698 137.384 276.12 136.468 277.147C135.994 277.653 135.741 287.322 136.152 289.457C136.213 289.664 136.348 289.845 136.531 289.962C138.522 291.321 164.165 302.413 166.788 300.928C168.542 299.931 189.477 278.143 189.809 277.479C190.314 276.436 190.141 269.484 190.109 266.703C189.983 265.866 188.418 264.965 187.66 264.507ZM137.1 285.38V281.856C143.657 285.016 158.667 291.462 164.355 293.263C165.809 293.737 165.935 293.674 166.693 293.263C171.038 290.482 186.38 273.197 189.193 270.559V273.892C180.661 282.442 166.172 297.42 165.903 296.567C164.339 296.472 138.459 286.012 137.1 285.38ZM187.265 259.183C187.832 260.14 188.138 261.23 188.15 262.343C188.145 262.697 188.058 263.044 187.896 263.36C187.734 263.675 187.502 263.949 187.218 264.16C185.89 263.275 183.378 261.632 180.408 259.704C182.035 256.497 185.653 256.449 187.202 259.183H187.265ZM136.705 269.295C143.436 267.304 156.218 254.98 160.516 249.639C161.549 249.928 162.547 250.336 163.486 250.856C161.906 253.795 163.597 257.018 164.197 256.56C164.529 256.307 163.928 256.212 163.834 254.664C163.793 253.533 164.05 252.411 164.576 251.409C166.757 252.547 169.316 254.032 171.481 255.28C170.154 258.235 171.749 261.158 172.302 260.731C172.855 260.304 172.05 260.399 171.955 258.851C171.917 257.836 172.11 256.824 172.524 255.896C174.751 257.208 177.027 258.566 179.112 259.846C178.791 260.634 178.663 261.487 178.74 262.333C178.817 263.18 179.096 263.996 179.555 264.713C179.576 264.739 179.601 264.763 179.631 264.78C179.66 264.796 179.693 264.807 179.726 264.811C179.76 264.815 179.794 264.814 179.827 264.805C179.86 264.796 179.89 264.781 179.918 264.76C179.944 264.739 179.968 264.714 179.984 264.684C180.001 264.655 180.013 264.622 180.017 264.588C180.021 264.555 180.019 264.52 180.01 264.487C180.001 264.455 179.986 264.423 179.965 264.397C179.681 263.769 179.541 263.085 179.555 262.397C179.568 261.708 179.735 261.031 180.044 260.415C183.726 262.659 186.696 264.539 187.613 265.155C187.439 265.313 170.959 279.975 165.35 284.338C161.669 283.372 142.346 273.782 136.705 269.295ZM137.305 278.095C144.463 281.255 160.721 288.586 164.466 289.299C165.113 289.425 165.366 289.471 166.599 288.492C171.86 284.274 188.971 266.372 189.129 266.561C189.137 266.609 189.137 266.656 189.129 266.703V269.863C185.606 272.692 166.014 293.263 165.698 292.284C164.118 292.284 138.443 281.81 137.132 281.224C137.1 280.56 137.242 278.79 137.305 278.095ZM166.077 299.868C164.497 300.77 140.434 290.988 137.211 288.997C137.089 287.989 137.032 286.978 137.037 285.964C143.957 289.376 164.086 297.877 165.935 297.799C168.637 297.656 187.739 276.152 189.098 274.651C189.114 275.458 189.033 276.264 188.861 277.052C188.592 277.574 167.12 299.284 166.077 299.868ZM35.1737 210.803C35.2843 212.494 35.3633 213.963 35.3633 215.338C35.3633 215.547 35.4466 215.748 35.5945 215.896C35.7428 216.045 35.9436 216.128 36.1533 216.128C36.3627 216.128 36.5638 216.045 36.7117 215.896C36.86 215.748 36.9433 215.547 36.9433 215.338C36.9433 213.868 36.8643 212.415 36.7537 210.692C36.739 210.483 36.6416 210.288 36.4831 210.15C36.3245 210.012 36.1179 209.943 35.9082 209.958C35.6988 209.972 35.5037 210.07 35.3659 210.228C35.228 210.387 35.159 210.594 35.1737 210.803ZM275.919 179.124C275.815 179.131 275.715 179.157 275.62 179.202C275.528 179.248 275.445 179.311 275.379 179.39C275.31 179.468 275.258 179.559 275.227 179.656C275.195 179.755 275.183 179.859 275.192 179.961C275.287 181.415 275.382 182.979 275.382 184.496C275.382 184.705 275.465 184.907 275.614 185.054C275.761 185.203 275.962 185.286 276.172 185.286C276.381 185.286 276.582 185.203 276.729 185.054C276.878 184.907 276.962 184.705 276.962 184.496C276.962 182.916 276.867 181.336 276.755 179.851C276.749 179.748 276.723 179.647 276.677 179.555C276.631 179.461 276.568 179.378 276.491 179.311C276.413 179.243 276.321 179.191 276.223 179.16C276.126 179.128 276.022 179.115 275.919 179.124ZM31.0815 206.869C31.2909 206.869 31.492 206.786 31.6399 206.637C31.7882 206.49 31.8715 206.288 31.8715 206.079C31.8715 205.869 31.7882 205.668 31.6399 205.521C31.492 205.372 31.2909 205.289 31.0815 205.289C29.1697 205.289 27.5739 205.431 25.9939 205.399C25.7827 205.399 25.5802 205.482 25.4297 205.63C25.2788 205.777 25.1921 205.979 25.1881 206.189C25.1881 206.399 25.2714 206.6 25.4193 206.748C25.5676 206.896 25.7684 206.979 25.9781 206.979C27.6055 207.011 29.3909 206.948 31.0815 206.869ZM271.021 174.447C269.125 174.447 267.529 174.558 265.933 174.574C265.724 174.574 265.522 174.657 265.375 174.805C265.226 174.953 265.143 175.154 265.143 175.364C265.143 175.573 265.226 175.774 265.375 175.922C265.522 176.071 265.724 176.154 265.933 176.154C267.64 176.154 269.409 176.154 271.116 176.027C271.325 176.014 271.521 175.919 271.661 175.763C271.799 175.606 271.87 175.399 271.858 175.19C271.845 174.98 271.75 174.784 271.594 174.645C271.436 174.505 271.23 174.434 271.021 174.447ZM34.7471 197.104C34.8419 198.558 34.9367 200.122 34.9367 201.639C34.9407 201.847 35.0251 202.046 35.1725 202.193C35.3196 202.341 35.5184 202.425 35.7267 202.429C35.9361 202.429 36.1372 202.346 36.2851 202.197C36.4334 202.05 36.5167 201.848 36.5167 201.639C36.5167 200.059 36.4219 198.479 36.3271 196.994C36.3124 196.784 36.215 196.59 36.0564 196.451C35.8979 196.313 35.6913 196.245 35.4816 196.259C35.2722 196.274 35.0771 196.371 34.9392 196.529C34.8014 196.688 34.7324 196.895 34.7471 197.104ZM276.534 170.797C276.534 169.217 276.439 167.637 276.33 166.152C276.315 165.943 276.218 165.748 276.06 165.61C275.902 165.472 275.695 165.403 275.485 165.418C275.275 165.432 275.08 165.529 274.942 165.687C274.804 165.847 274.735 166.053 274.75 166.263C274.844 167.716 274.939 169.281 274.939 170.797C274.939 171.007 275.023 171.208 275.172 171.356C275.318 171.504 275.52 171.587 275.729 171.587C275.939 171.587 276.143 171.504 276.292 171.357C276.445 171.21 276.531 171.008 276.534 170.797ZM46.4075 206.663C46.5112 206.659 46.6132 206.634 46.7074 206.591C46.8016 206.548 46.8866 206.486 46.957 206.409C47.0274 206.333 47.0823 206.245 47.1179 206.146C47.1538 206.049 47.1702 205.946 47.1659 205.842C47.1498 205.635 47.0564 205.442 46.9039 205.301C46.7516 205.161 46.5517 205.083 46.3443 205.083C44.4325 205.162 42.8367 205.226 41.2409 205.194C41.0312 205.194 40.8303 205.277 40.6821 205.426C40.5342 205.573 40.4509 205.775 40.4509 205.984C40.4509 206.193 40.5342 206.395 40.6821 206.542C40.8303 206.691 41.0312 206.774 41.2409 206.774C42.9315 206.806 44.7011 206.742 46.4075 206.663ZM286.347 174.242C284.767 174.321 283.012 174.368 281.259 174.368C281.156 174.364 281.052 174.381 280.952 174.418C280.854 174.455 280.768 174.512 280.69 174.583C280.616 174.655 280.555 174.742 280.515 174.838C280.475 174.934 280.452 175.038 280.452 175.142C280.452 175.353 280.535 175.556 280.685 175.707C280.831 175.857 281.032 175.944 281.242 175.948C283.043 175.948 284.497 175.948 286.41 175.822C286.513 175.818 286.614 175.793 286.709 175.749C286.804 175.706 286.89 175.644 286.959 175.568C287.031 175.491 287.085 175.403 287.12 175.304C287.157 175.207 287.171 175.104 287.168 175C287.148 174.795 287.054 174.604 286.901 174.464C286.752 174.323 286.554 174.244 286.347 174.242ZM10.0989 159.848C10.3043 160.006 54.8605 153.402 56.7723 152.232C56.8783 152.155 56.9627 152.052 57.0179 151.934C57.073 151.815 57.0975 151.683 57.0883 151.553C57.0883 149.515 54.4181 130.381 53.1383 125.609C52.9803 125.025 52.8223 124.44 52.4589 124.235C50.0415 122.781 7.44457 130.808 4.90077 132.451C4.83189 132.492 4.77225 132.547 4.72603 132.611C4.67969 132.677 4.64783 132.751 4.63215 132.83C4.09495 134.742 8.72435 158.9 10.0989 159.848ZM5.59597 133.209C8.62957 131.835 47.2923 124.756 51.7163 125.309C52.7907 128.074 55.6663 148.33 55.8559 151.3C53.6597 151.948 10.6994 159.327 10.5414 159.358C10.3834 159.39 10.3676 159.579 10.0358 158.584C8.64538 154.413 5.51697 136.78 5.59597 133.209Z" fill="#2E3032"/>
<path d="M60.2483 153.639C60.3342 153.479 60.3726 153.298 60.3589 153.117C60.3589 150.605 56.7565 122.718 55.4767 120.49C55.3764 120.326 55.2345 120.191 55.065 120.1C54.8958 120.008 54.7053 119.963 54.5129 119.969C49.2199 119.321 4.56906 128.043 1.63026 130.081C1.21946 130.365 1.28266 131.076 1.33006 131.835C1.58286 135.99 6.07006 163.324 7.65006 163.166C7.82386 163.166 7.76066 163.04 7.34986 163.877C4.88506 168.949 0.208255 185.191 0.303055 188.462C0.303055 189.836 0.619056 191.622 1.97786 191.527C11.7265 190.326 59.5215 182.742 73.2675 179.914C73.8047 179.803 74.1523 179.314 74.1365 178.508C73.9742 177.165 73.5674 175.864 72.9357 174.668C71.0081 171.05 63.0133 156.72 60.2483 153.639ZM7.74486 162.676C6.51246 161.096 1.97786 133.873 2.32546 130.855C5.80146 129.054 49.8519 120.538 54.4655 121.233C55.7295 124.709 59.0001 149.815 59.2055 152.833C53.6123 154.76 14.8865 161.017 7.74486 162.676ZM8.44006 163.15C9.76726 162.818 54.9711 155.25 59.1107 154.16C61.3701 156.261 71.5769 174.416 72.2405 175.964C63.1713 177.544 9.37226 186.534 1.45646 187.735C1.56706 182.948 6.48086 166.215 8.44006 163.15Z" fill="#2E3032"/>
<path d="M14.3817 179.535C15.7563 179.329 44.9231 175.822 55.4617 172.962C55.5266 172.945 55.5823 172.903 55.6165 172.846C55.6504 172.788 55.6602 172.718 55.6435 172.654C55.6266 172.589 55.5849 172.533 55.5269 172.5C55.4692 172.466 55.4002 172.455 55.3353 172.472C53.2655 172.899 28.0171 176.264 14.3501 179.045C14.3123 179.038 14.2735 179.04 14.2366 179.05C14.1997 179.061 14.1656 179.079 14.1371 179.106C14.1083 179.131 14.086 179.162 14.0714 179.198C14.0569 179.233 14.0505 179.271 14.053 179.31C14.0556 179.348 14.0666 179.386 14.0857 179.419C14.1047 179.452 14.131 179.481 14.1626 179.502C14.1943 179.524 14.2306 179.539 14.2685 179.544C14.3064 179.549 14.3451 179.547 14.3817 179.535ZM35.6959 69.5984C35.1055 70.9314 34.6094 72.3042 34.2107 73.7064C34.1871 73.9313 34.2492 74.1571 34.3845 74.3384C35.9803 76.74 52.3333 95.1786 56.5993 97.7698C57.1839 98.1332 57.8791 98.386 58.3057 97.8646C61.4045 94.0085 65.449 91.0203 70.0451 89.1904C73.7859 87.8669 77.7081 87.1261 81.6739 86.9942C84.8339 86.7098 85.3869 86.3938 86.6035 84.324C88.0387 81.6001 89.9427 79.1505 92.2283 77.0876C95.1427 74.5395 98.3774 72.3829 101.85 70.6728C102.007 70.5843 102.129 70.4459 102.198 70.2798C102.266 70.1138 102.278 69.9296 102.23 69.7564C101.696 68.3973 100.989 67.1124 100.128 65.9328C100.697 65.7432 101.329 65.5694 101.329 65.0006C101.329 63.4206 87.5515 43.481 83.7279 39.7206C83.3329 39.3256 82.7641 38.8042 82.2427 38.8358C74.3427 39.2782 66.6481 46.7358 62.1925 53.2454C57.0891 53.0558 53.7869 52.5976 47.9725 55.0466C43.8676 56.7889 40.167 59.3603 37.1021 62.599C36.6281 63.0888 33.4049 66.5016 33.3575 66.7702C33.3101 67.0388 33.4049 67.0388 35.6959 69.5984ZM98.8959 69.156C92.3073 70.2778 88.1045 75.7604 85.0077 81.717C83.6331 84.3714 83.7595 84.4978 82.3059 84.4662C79.7641 84.3223 77.2143 84.4177 74.6903 84.7506C72.8388 85.0272 71.0187 85.4826 69.2551 86.1094C65.2419 87.5314 60.6441 92.0818 58.1951 95.463C58.1431 95.5325 58.0767 95.5903 58.0009 95.6325C57.925 95.6747 57.8412 95.7003 57.7544 95.7078C57.6679 95.7152 57.5809 95.7043 57.4987 95.6759C57.4169 95.6471 57.3419 95.6018 57.2787 95.542C52.1437 90.249 43.0587 80.9586 38.4925 75.6182C38.2713 75.3812 38.6505 75.0336 38.8717 75.2864C41.8263 78.4464 49.4577 86.0146 57.6421 94.2464C60.4071 90.723 64.6731 86.457 68.8917 84.9718C71.1922 84.1514 73.586 83.6205 76.0175 83.3918C78.2947 83.2189 80.5817 83.2189 82.8589 83.3918C83.7911 82.3174 88.4047 70.1198 98.8643 68.761C98.8947 68.7834 98.92 68.8124 98.9378 68.846C98.9559 68.8797 98.9657 68.9167 98.9671 68.9546C98.9688 68.9925 98.9617 69.0305 98.9467 69.0652C98.9315 69.1003 98.9088 69.131 98.8801 69.156H98.8959ZM82.2269 40.1156C85.3869 42.3276 98.2481 61.3666 99.9229 64.7004C97.0168 65.6211 94.2113 66.8334 91.5489 68.3186C89.0278 69.5826 86.8204 71.3927 85.0876 73.6176C83.3544 75.8426 82.1398 78.426 81.5317 81.1798C75.8595 71.9526 67.9437 61.7932 62.6823 54.3198C62.9983 54.1144 71.8779 40.7318 82.2269 40.1156ZM48.3201 55.9156C54.0871 53.593 57.2787 54.1302 62.0503 54.3356C66.7903 62.4252 75.3065 73.8328 80.9155 81.3062C75.7385 80.0813 70.291 80.8305 65.6369 83.4076C62.8403 84.9876 59.4275 88.7796 57.3261 91.1338C54.2925 88.7006 36.7861 70.0566 33.9737 66.8966C38.3029 61.9986 42.3003 58.3172 48.3201 55.8524V55.9156ZM19.4061 96.095C19.0157 95.8209 18.554 95.6661 18.0772 95.6494C17.6003 95.6325 17.1289 95.7543 16.7201 96.0002C16.4225 96.1329 16.1536 96.3231 15.9295 96.5598C15.7051 96.7965 15.5297 97.0749 15.4131 97.3794C15.2964 97.6836 15.2408 98.0082 15.2497 98.334C15.2583 98.6601 15.3312 98.9809 15.464 99.2788C15.5967 99.5765 15.787 99.8451 16.0234 100.069C16.2602 100.293 16.5385 100.469 16.843 100.586C17.1475 100.703 17.4719 100.758 17.7979 100.749C18.1237 100.74 18.4449 100.668 18.7425 100.535C19.2182 100.431 19.6511 100.185 19.9835 99.829C20.3162 99.4733 20.5328 99.0252 20.6046 98.5437C20.6767 98.0622 20.6006 97.5701 20.3865 97.1329C20.1725 96.6954 19.8307 96.3337 19.4061 96.095ZM18.3633 99.255C17.2573 99.6026 16.5937 99.255 16.3251 98.7178C15.8195 97.596 16.4515 95.8738 18.0947 96.3794C19.2481 96.806 20.1803 98.7494 18.3633 99.334V99.255ZM99.7491 23.7942C100.207 24.7264 102.34 24.3788 103.272 24.0786C103.762 23.9206 104.078 23.7468 104.126 23.2728C104.268 22.0878 104.426 11.8178 103.889 10.8224C103.833 10.718 103.748 10.6324 103.644 10.5762C103.54 10.52 103.422 10.4956 103.304 10.5064C101.618 10.5017 99.941 10.7467 98.3271 11.2332C97.6793 11.6282 99.1803 22.7514 99.7491 23.7942ZM98.6589 11.6124C100.119 11.4036 101.595 11.3349 103.067 11.407C103.162 12.5762 102.909 22.704 102.893 22.862C102.226 23.1013 101.513 23.1878 100.808 23.1148C100.697 22.7514 100.507 21.7718 100.27 20.5394C99.5741 17.5947 99.0364 14.6147 98.6589 11.6124ZM17.8735 82.7598C18.0252 82.8377 18.1929 82.8779 18.3633 82.8779C18.5336 82.8779 18.7014 82.8377 18.8531 82.7598C19.4635 82.3832 19.9476 81.8331 20.2435 81.1798C20.2837 81.0752 20.2961 80.9621 20.2794 80.8514C20.2627 80.7406 20.2179 80.636 20.1487 80.5478C19.3903 79.6472 11.1111 70.0566 10.0999 70.657C8.85829 71.4608 7.68039 72.3588 6.57649 73.343C6.53199 73.3829 6.49631 73.4315 6.47183 73.4858C6.44733 73.5404 6.43457 73.5993 6.43429 73.659C6.40269 74.4806 15.5983 81.8434 17.8735 82.7598ZM10.2895 71.0678C11.4429 71.9052 15.3297 76.7084 18.9321 80.9586C18.7772 81.2025 18.5853 81.4211 18.3633 81.6064C14.5758 79.1824 10.9595 76.5004 7.54029 73.58C8.39745 72.68 9.31609 71.8406 10.2895 71.0678ZM35.1113 36.213C35.4589 30.0826 39.0297 27.2386 42.7585 26.5118C41.6999 30.3986 41.8737 35.4546 45.7131 36.1024C47.5459 36.4026 48.4465 35.4546 49.7737 34.3486C55.4459 29.6086 50.8639 24.8686 44.4649 25.2004C46.8507 18.6592 52.3649 13.3346 59.6803 13.1608C59.7472 13.1608 59.8116 13.1342 59.859 13.0868C59.9064 13.0393 59.9331 12.9751 59.9331 12.908C59.9331 12.841 59.9064 12.7766 59.859 12.7292C59.8116 12.6818 59.7472 12.6552 59.6803 12.6552C51.7803 12.4972 45.5709 18.1852 43.1219 25.2952C38.9033 26.022 34.7163 29.182 34.6057 36.1182C34.5994 36.1515 34.5997 36.1854 34.6068 36.2185C34.6137 36.2515 34.6272 36.2828 34.6462 36.311C34.6654 36.3388 34.6896 36.3627 34.718 36.3811C34.7462 36.3994 34.7781 36.4124 34.8111 36.4184C34.8444 36.4247 34.8783 36.4242 34.9113 36.4173C34.9444 36.4104 34.9757 36.3969 35.0038 36.3779C35.0317 36.3587 35.0556 36.3345 35.0739 36.3061C35.0923 36.2779 35.105 36.2463 35.1113 36.213ZM44.1015 26.3222C46.4557 26.1642 49.9633 26.891 50.9271 29.024C51.4801 30.2406 50.9271 31.7416 48.9679 33.3848C48.4359 33.9177 47.8291 34.3702 47.1667 34.7278C44.7967 35.739 42.1739 32.816 44.1015 26.3222ZM48.6203 249.782C47.0937 249.372 45.5011 249.273 43.9354 249.489C42.3698 249.705 40.8633 250.232 39.5045 251.039C38.1457 251.845 36.9619 252.915 36.0231 254.187C35.084 255.458 34.4086 256.903 34.0369 258.44C33.3351 261.632 33.9294 264.971 35.6896 267.723C37.4497 270.476 40.2311 272.416 43.4221 273.118C46.6131 273.82 49.9524 273.226 52.7047 271.466C55.4577 269.705 57.3985 266.925 58.1003 263.733C58.4002 262.194 58.3924 260.611 58.0773 259.075C57.7625 257.538 57.1465 256.081 56.2655 254.784C55.3841 253.487 54.2549 252.377 52.9429 251.518C51.6306 250.66 50.1615 250.07 48.6203 249.782ZM53.5025 262.659C52.8685 265.187 51.3508 267.405 49.2238 268.911C47.0969 270.419 44.5008 271.116 41.9053 270.875C39.5226 269.944 37.5445 268.202 36.3193 265.957C35.0941 263.711 34.6996 261.105 35.2061 258.598C35.7973 256.008 37.3009 253.717 39.4419 252.145C41.583 250.573 44.2184 249.824 46.8665 250.034C49.2727 251.029 51.2511 252.839 52.4534 255.148C53.6556 257.458 54.0049 260.117 53.4393 262.659H53.5025Z" fill="#2E3032"/>
<path d="M69.6656 254.285C68.2902 253.811 66.8159 253.696 65.3838 253.953C64.79 252.591 64.0598 251.294 63.2034 250.082C64.2304 249.15 67.0428 246.558 66.3634 245.342C63.9455 242.449 61.0747 239.969 57.8628 237.995C56.5218 237.243 55.0452 236.765 53.518 236.589C52.5068 236.731 50.1049 240.665 49.5677 241.55C49.2201 241.55 47.988 241.155 47.8932 241.107C47.8932 239.97 47.5614 235.862 46.5344 235.388C45.3859 234.965 44.1935 234.673 42.9794 234.519C41.8576 234.345 31.7614 236.194 31.0188 237.552C30.529 238.469 31.6666 241.929 31.9984 242.893C31.1464 243.362 30.3279 243.89 29.5494 244.473C27.9694 245.595 28.396 245.547 28.1116 245.421C27.7678 245.256 27.3995 245.15 27.0214 245.105C25.7592 244.365 24.2794 244.086 22.8344 244.315C21.3808 244.789 17.9522 252.594 17.3992 254.601C17.2183 255.106 17.1694 255.65 17.257 256.181C17.6362 257.223 20.1642 258.061 21.2228 258.393C20.9304 260.426 20.9304 262.49 21.2228 264.523C19.8324 264.902 16.9408 265.755 17.0988 267.177C17.2568 268.599 20.9539 277.985 22.4865 278.727C23.3262 279.197 24.2547 279.486 25.2125 279.575C26.1702 279.665 27.1361 279.554 28.0484 279.249C28.5621 278.992 29.0585 278.702 29.5336 278.38C30.1656 278.854 30.8292 279.28 31.5086 279.691C31.0188 280.908 29.9286 283.625 30.2762 284.858C30.45 285.507 30.9714 285.711 31.6982 285.981C33.7048 286.708 44.512 289.299 46.1552 289.014C46.7714 288.92 47.1032 288.27 47.2928 287.656C47.6439 286.251 47.8504 284.817 47.9088 283.372C48.7203 283.292 49.5272 283.171 50.3264 283.01C50.8145 283.867 51.4388 284.642 52.175 285.3C52.9808 285.869 53.6602 285.584 54.5766 285.001C55.019 285.57 55.6826 286.36 56.3936 286.438C58.179 286.644 65.5576 279.691 66.316 278.269C66.948 277.084 64.6412 274.967 63.6142 274.035C64.7251 272.362 65.5973 270.544 66.2054 268.631C67.345 268.802 68.4984 268.867 69.6498 268.821C70.1712 268.821 70.7716 268.631 70.9928 268.141C71.9566 265.945 71.6722 257.618 70.9928 255.501C70.898 254.885 70.187 254.474 69.6656 254.285ZM70.0448 255.738C70.582 257.792 70.7555 265.55 69.9655 267.557C68.5996 267.691 67.2212 267.628 65.8733 267.367C65.7297 267.342 65.5818 267.372 65.4591 267.451C65.3361 267.53 65.2474 267.653 65.21 267.794C64.5809 269.929 63.6039 271.948 62.3183 273.766C62.227 273.887 62.1856 274.037 62.2034 274.189C62.221 274.339 62.2965 274.476 62.4134 274.572C63.522 275.45 64.4637 276.52 65.1942 277.732C64.4042 279.027 58.2264 284.685 56.52 285.159C56.2672 285.159 55.572 284.211 55.3982 283.958C54.8145 283.079 54.2871 282.169 53.8182 281.224C53.7499 281.086 53.6324 280.979 53.4893 280.925C53.346 280.867 53.1871 280.867 53.0438 280.925C48.4618 282.646 46.724 281.634 46.724 282.772C46.7261 284.476 46.4485 286.168 45.9022 287.782C42.1892 287.377 38.533 286.561 35.0004 285.349C35.1711 283.66 35.6416 282.016 36.3908 280.497C36.8648 279.438 34.9688 279.738 31.4296 276.136C31.3156 276.031 31.1662 275.971 31.0111 275.971C30.8557 275.971 30.7063 276.031 30.5922 276.136C29.0122 277.432 26.9582 278.696 26.5474 278.49C25.7416 278.095 22.0286 269.674 21.8074 267.967C22.9312 267.184 24.207 266.645 25.552 266.387C25.6954 266.347 25.8192 266.256 25.9008 266.131C25.9818 266.006 26.0154 265.855 25.9944 265.708C25.6072 263.471 25.6072 261.183 25.9944 258.946C26.0186 258.807 25.9896 258.666 25.9134 258.549C25.837 258.432 25.7192 258.348 25.5836 258.314C24.3923 258.002 23.2458 257.539 22.1708 256.939C21.8232 256.686 21.8548 256.702 21.8864 256.433C22.9091 252.745 24.5492 249.256 26.737 246.116C27.5902 245.879 29.897 247.57 30.687 248.17C30.7695 248.25 30.8801 248.295 30.995 248.295C31.1102 248.295 31.2208 248.25 31.3032 248.17C32.0292 247.417 32.8108 246.72 33.6416 246.084C36.0432 244.267 36.691 244.504 36.4856 243.872C35.7591 242.287 35.3512 240.574 35.2848 238.832C35.5296 238.628 35.8077 238.469 36.1064 238.358C37.5816 237.775 39.0969 237.3 40.641 236.936C42.5126 236.415 44.4362 236.101 46.3764 236.004C46.7082 236.146 47.0084 237.584 47.0874 238.026C47.672 241.186 47.277 241.834 47.7352 241.882C52.2382 242.324 53.1546 243.572 53.4706 243.019C54.3468 241.487 55.3681 240.042 56.52 238.706C56.8518 238.374 56.836 238.216 57.8314 238.785C60.8053 240.728 63.4686 243.109 65.7314 245.847C65.9684 246.258 63.9144 248.439 62.4134 249.718C61.892 250.177 62.6346 250.382 63.9934 252.973C65.3522 255.564 65.0359 256.291 65.7627 256.133C67.1641 255.797 68.6059 255.664 70.0448 255.738ZM289.332 123.713C286.019 122.361 282.549 121.442 279.001 120.98C276.41 120.569 273.359 120.158 270.784 119.827C273.264 116.319 280.61 107.439 281.842 105.275C282.19 104.69 281.529 103.869 281.038 103.379C278.289 100.44 272.98 99.334 268.904 98.702C266.565 98.3228 256.801 97.122 255.142 97.912C253.151 98.86 238.425 120.98 237.983 124.345C237.983 124.914 238.173 125.135 238.726 125.341C241.048 126.194 251.524 127.521 253.862 128.074C250.702 133.604 236.656 152.296 235.281 154.934C234.949 155.598 235.155 155.993 235.55 156.119C236.972 156.684 238.435 157.138 239.926 157.478C240.495 157.652 241.743 156.878 243.56 155.772C251.713 150.874 286.694 127.774 289.38 124.788C289.455 124.718 289.513 124.633 289.553 124.538C289.59 124.443 289.607 124.342 289.602 124.24C289.599 124.138 289.57 124.038 289.524 123.947C289.478 123.856 289.412 123.777 289.332 123.713ZM255.379 142.673C241.949 151.537 237.414 154.128 237.256 154.239C239.421 150.937 252.867 132.514 255.173 128.106C255.213 128.02 255.234 127.928 255.234 127.833C255.234 127.74 255.212 127.646 255.171 127.562C255.13 127.476 255.071 127.403 254.997 127.343C254.925 127.284 254.839 127.242 254.747 127.221C253.167 126.652 241.664 125.42 238.947 124.456C239.294 121.517 253.641 99.3024 255.379 98.4176C257.117 97.5328 273.975 99.5394 277.137 101.799C275.476 105.038 266.312 116.382 264.827 119.021C264.527 119.558 264.432 120.079 265.017 120.222C265.601 120.364 280.452 122.102 283.692 123.16C279.742 126.463 259.803 139.703 255.379 142.61V142.673ZM154.022 46.0722C154.022 46.2144 154.117 46.3882 154.354 47.3046C154.415 47.5034 154.552 47.6703 154.735 47.7706C154.917 47.8706 155.132 47.8961 155.333 47.8418C155.535 47.7832 155.704 47.6471 155.805 47.4632C155.906 47.2796 155.93 47.0633 155.87 46.8622C155.712 46.246 155.57 45.7246 155.475 45.4718C155.383 45.2983 155.23 45.1653 155.045 45.0989C154.861 45.0323 154.658 45.0369 154.476 45.1119C154.294 45.1868 154.147 45.3268 154.064 45.5043C153.98 45.6818 153.964 45.8843 154.022 46.0722Z" fill="#2E3032"/>
</svg>
